<svg version="1.1" xmlns="http://www.w3.org/2000/svg" xmlns:xlink="http://www.w3.org/1999/xlink" width="400" height="400" viewBox="0 0 400 400"><defs/><g><rect fill="rgb(0,0,0)" stroke="none" x="0" y="0" width="400" height="400" transform="matrix(1 0 0 1 0 0)" fill-opacity="1"/><path fill="none" stroke="rgb(255,0,0)" paint-order="fill stroke markers" d=" M 230.35533905932738 164.64466094067262 C 230.35533905932738 161.88323719167263 232.5939153103274 159.64466094067262 235.35533905932738 159.64466094067262 C 238.11676280832737 159.64466094067262 240.35533905932738 161.88323719167263 240.35533905932738 164.64466094067262 C 240.35533905932738 167.4060846896726 238.11676280832737 169.64466094067262 235.35533905932738 169.64466094067262 C 232.5939153103274 169.64466094067262 230.35533905932738 167.4060846896726 230.35533905932738 164.64466094067262" stroke-opacity="1" stroke-linecap="round" stroke-miterlimit="10" stroke-dasharray=""/><path fill="none" stroke="rgb(255,0,0)" paint-order="fill stroke markers" d=" M 263.43266928938465 174.91980635478964 C 263.43266928938465 172.15838260578965 265.67124554038463 169.91980635478964 268.43266928938465 169.91980635478964 C 271.19409303838466 169.91980635478964 273.43266928938465 172.15838260578965 273.43266928938465 174.91980635478964 C 273.43266928938465 177.68123010378963 271.19409303838466 179.91980635478964 268.43266928938465 179.91980635478964 C 265.67124554038463 179.91980635478964 263.43266928938465 177.68123010378963 263.43266928938465 174.91980635478964" stroke-opacity="1" stroke-linecap="round" stroke-miterlimit="10" stroke-dasharray=""/><path fill="none" stroke="rgb(255,0,0)" paint-order="fill stroke markers" d=" M 290.3423295092203 188.067573067477 C 290.3423295092203 185.30614931847703 292.5809057602203 183.067573067477 295.3423295092203 183.067573067477 C 298.1037532582203 183.067573067477 300.3423295092203 185.30614931847703 300.3423295092203 188.067573067477 C 300.3423295092203 190.828996816477 298.1037532582203 193.067573067477 295.3423295092203 193.067573067477 C 292.5809057602203 193.067573067477 290.3423295092203 190.828996816477 290.3423295092203 188.067573067477" stroke-opacity="1" stroke-linecap="round" stroke-miterlimit="10" stroke-dasharray=""/><path fill="none" stroke="rgb(255,0,0)" paint-order="fill stroke markers" d=" M 311.08431971883425 204.08796107873474 C 311.08431971883425 201.32653732973475 313.32289596983424 199.08796107873474 316.08431971883425 199.08796107873474 C 318.84574346783427 199.08796107873474 321.08431971883425 201.32653732973475 321.08431971883425 204.08796107873474 C 321.08431971883425 206.84938482773472 318.84574346783427 209.08796107873474 316.08431971883425 209.08796107873474 C 313.32289596983424 209.08796107873474 311.08431971883425 206.84938482773472 311.08431971883425 204.08796107873474" stroke-opacity="1" stroke-linecap="round" stroke-miterlimit="10" stroke-dasharray=""/><path fill="none" stroke="rgb(255,0,0)" paint-order="fill stroke markers" d=" M 325.6586399182265 222.98097038856278 C 325.6586399182265 220.2195466395628 327.8972161692265 217.98097038856278 330.6586399182265 217.98097038856278 C 333.42006366722654 217.98097038856278 335.6586399182265 220.2195466395628 335.6586399182265 222.98097038856278 C 335.6586399182265 225.74239413756277 333.42006366722654 227.98097038856278 330.6586399182265 227.98097038856278 C 327.8972161692265 227.98097038856278 325.6586399182265 225.74239413756277 325.6586399182265 222.98097038856278" stroke-opacity="1" stroke-linecap="round" stroke-miterlimit="10" stroke-dasharray=""/><path fill="none" stroke="rgb(255,0,0)" paint-order="fill stroke markers" d=" M 334.065290107397 244.7466009969612 C 334.065290107397 241.98517724796122 336.303866358397 239.7466009969612 339.065290107397 239.7466009969612 C 341.826713856397 239.7466009969612 344.065290107397 241.98517724796122 344.065290107397 244.7466009969612 C 344.065290107397 247.5080247459612 341.826713856397 249.7466009969612 339.065290107397 249.7466009969612 C 336.303866358397 249.7466009969612 334.065290107397 247.5080247459612 334.065290107397 244.7466009969612" stroke-opacity="1" stroke-linecap="round" stroke-miterlimit="10" stroke-dasharray=""/><path fill="none" stroke="rgb(255,0,0)" paint-order="fill stroke markers" d=" M 336.3042702863459 269.38485290393 C 336.3042702863459 266.62342915492997 338.5428465373459 264.38485290393 341.3042702863459 264.38485290393 C 344.0656940353459 264.38485290393 346.3042702863459 266.62342915492997 346.3042702863459 269.38485290393 C 346.3042702863459 272.14627665293 344.0656940353459 274.38485290393 341.3042702863459 274.38485290393 C 338.5428465373459 274.38485290393 336.3042702863459 272.14627665293 336.3042702863459 269.38485290393" stroke-opacity="1" stroke-linecap="round" stroke-miterlimit="10" stroke-dasharray=""/><path fill="none" stroke="rgb(255,0,0)" paint-order="fill stroke markers" d=" M 332.3755804550731 296.8957261094691 C 332.3755804550731 294.13430236046906 334.61415670607306 291.8957261094691 337.3755804550731 291.8957261094691 C 340.1370042040731 291.8957261094691 342.3755804550731 294.13430236046906 342.3755804550731 296.8957261094691 C 342.3755804550731 299.6571498584691 340.1370042040731 301.8957261094691 337.3755804550731 301.8957261094691 C 334.61415670607306 301.8957261094691 332.3755804550731 299.6571498584691 332.3755804550731 296.8957261094691" stroke-opacity="1" stroke-linecap="round" stroke-miterlimit="10" stroke-dasharray=""/><path fill="none" stroke="rgb(255,0,0)" paint-order="fill stroke markers" d=" M 322.27922061357856 327.27922061357856 C 322.27922061357856 324.51779686457854 324.51779686457854 322.27922061357856 327.27922061357856 322.27922061357856 C 330.0406443625786 322.27922061357856 332.27922061357856 324.51779686457854 332.27922061357856 327.27922061357856 C 332.27922061357856 330.0406443625786 330.0406443625786 332.27922061357856 327.27922061357856 332.27922061357856 C 324.51779686457854 332.27922061357856 322.27922061357856 330.0406443625786 322.27922061357856 327.27922061357856" stroke-opacity="1" stroke-linecap="round" stroke-miterlimit="10" stroke-dasharray=""/><path fill="none" stroke="rgb(255,0,0)" paint-order="fill stroke markers" d=" M 375 200 C 375 197.238576251 377.238576251 195 380 195 C 382.761423749 195 385 197.238576251 385 200 C 385 202.761423749 382.761423749 205 380 205 C 377.238576251 205 375 202.761423749 375 200" stroke-opacity="1" stroke-linecap="round" stroke-miterlimit="10" stroke-dasharray=""/><path fill="none" stroke="rgb(255,0,0)" paint-order="fill stroke markers" d=" M 344.30242717280197 200.552427172802 C 344.30242717280197 197.791003423802 346.54100342380195 195.552427172802 349.30242717280197 195.552427172802 C 352.063850921802 195.552427172802 354.30242717280197 197.791003423802 354.30242717280197 200.552427172802 C 354.30242717280197 203.313850921802 352.063850921802 205.552427172802 349.30242717280197 205.552427172802 C 346.54100342380195 205.552427172802 344.30242717280197 203.313850921802 344.30242717280197 200.552427172802" stroke-opacity="1" stroke-linecap="round" stroke-miterlimit="10" stroke-dasharray=""/><path fill="none" stroke="rgb(255,0,0)" paint-order="fill stroke markers" d=" M 317.20970869120794 202.20970869120796 C 317.20970869120794 199.44828494220798 319.4482849422079 197.20970869120796 322.20970869120794 197.20970869120796 C 324.97113244020795 197.20970869120796 327.20970869120794 199.44828494220798 327.20970869120794 202.20970869120796 C 327.20970869120794 204.97113244020795 324.97113244020795 207.20970869120796 322.20970869120794 207.20970869120796 C 319.4482849422079 207.20970869120796 317.20970869120794 204.97113244020795 317.20970869120794 202.20970869120796" stroke-opacity="1" stroke-linecap="round" stroke-miterlimit="10" stroke-dasharray=""/><path fill="none" stroke="rgb(255,0,0)" paint-order="fill stroke markers" d=" M 293.7218445552179 204.9718445552179 C 293.7218445552179 202.2104208062179 295.9604208062179 199.9718445552179 298.7218445552179 199.9718445552179 C 301.4832683042179 199.9718445552179 303.7218445552179 202.2104208062179 303.7218445552179 204.9718445552179 C 303.7218445552179 207.7332683042179 301.4832683042179 209.9718445552179 298.7218445552179 209.9718445552179 C 295.9604208062179 209.9718445552179 293.7218445552179 207.7332683042179 293.7218445552179 204.9718445552179" stroke-opacity="1" stroke-linecap="round" stroke-miterlimit="10" stroke-dasharray=""/><path fill="none" stroke="rgb(255,0,0)" paint-order="fill stroke markers" d=" M 273.83883476483186 208.83883476483186 C 273.83883476483186 206.07741101583187 276.07741101583184 203.83883476483186 278.83883476483186 203.83883476483186 C 281.6002585138319 203.83883476483186 283.83883476483186 206.07741101583187 283.83883476483186 208.83883476483186 C 283.83883476483186 211.60025851383185 281.6002585138319 213.83883476483186 278.83883476483186 213.83883476483186 C 276.07741101583184 213.83883476483186 273.83883476483186 211.60025851383185 273.83883476483186 208.83883476483186" stroke-opacity="1" stroke-linecap="round" stroke-miterlimit="10" stroke-dasharray=""/><path fill="none" stroke="rgb(255,0,0)" paint-order="fill stroke markers" d=" M 257.56067932004976 213.81067932004976 C 257.56067932004976 211.04925557104977 259.79925557104974 208.81067932004976 262.56067932004976 208.81067932004976 C 265.3221030690498 208.81067932004976 267.56067932004976 211.04925557104977 267.56067932004976 213.81067932004976 C 267.56067932004976 216.57210306904975 265.3221030690498 218.81067932004976 262.56067932004976 218.81067932004976 C 259.79925557104974 218.81067932004976 257.56067932004976 216.57210306904975 257.56067932004976 213.81067932004976" stroke-opacity="1" stroke-linecap="round" stroke-miterlimit="10" stroke-dasharray=""/><path fill="none" stroke="rgb(255,0,0)" paint-order="fill stroke markers" d=" M 244.88737822087165 219.88737822087165 C 244.88737822087165 217.12595447187167 247.12595447187167 214.88737822087165 249.88737822087165 214.88737822087165 C 252.64880196987164 214.88737822087165 254.88737822087165 217.12595447187167 254.88737822087165 219.88737822087165 C 254.88737822087165 222.64880196987164 252.64880196987164 224.88737822087165 249.88737822087165 224.88737822087165 C 247.12595447187167 224.88737822087165 244.88737822087165 222.64880196987164 244.88737822087165 219.88737822087165" stroke-opacity="1" stroke-linecap="round" stroke-miterlimit="10" stroke-dasharray=""/><path fill="none" stroke="rgb(255,0,0)" paint-order="fill stroke markers" d=" M 235.81893146729752 227.06893146729752 C 235.81893146729752 224.30750771829753 238.05750771829753 222.06893146729752 240.81893146729752 222.06893146729752 C 243.5803552162975 222.06893146729752 245.81893146729752 224.30750771829753 245.81893146729752 227.06893146729752 C 245.81893146729752 229.8303552162975 243.5803552162975 232.06893146729752 240.81893146729752 232.06893146729752 C 238.05750771829753 232.06893146729752 235.81893146729752 229.8303552162975 235.81893146729752 227.06893146729752" stroke-opacity="1" stroke-linecap="round" stroke-miterlimit="10" stroke-dasharray=""/><path fill="none" stroke="rgb(255,0,0)" paint-order="fill stroke markers" d=" M 230.35533905932738 235.35533905932738 C 230.35533905932738 232.5939153103274 232.5939153103274 230.35533905932738 235.35533905932738 230.35533905932738 C 238.11676280832737 230.35533905932738 240.35533905932738 232.5939153103274 240.35533905932738 235.35533905932738 C 240.35533905932738 238.11676280832737 238.11676280832737 240.35533905932738 235.35533905932738 240.35533905932738 C 232.5939153103274 240.35533905932738 230.35533905932738 238.11676280832737 230.35533905932738 235.35533905932738" stroke-opacity="1" stroke-linecap="round" stroke-miterlimit="10" stroke-dasharray=""/><path fill="none" stroke="rgb(255,0,0)" paint-order="fill stroke markers" d=" M 245 200 C 245 197.238576251 247.238576251 195 250 195 C 252.761423749 195 255 197.238576251 255 200 C 255 202.761423749 252.761423749 205 250 205 C 247.238576251 205 245 202.761423749 245 200" stroke-opacity="1" stroke-linecap="round" stroke-miterlimit="10" stroke-dasharray=""/><path fill="none" stroke="rgb(255,0,0)" paint-order="fill stroke markers" d=" M 261.1235795092203 230.6548295092203 C 261.1235795092203 227.8934057602203 263.3621557602203 225.6548295092203 266.1235795092203 225.6548295092203 C 268.8850032582203 225.6548295092203 271.1235795092203 227.8934057602203 271.1235795092203 230.6548295092203 C 271.1235795092203 233.41625325822028 268.8850032582203 235.6548295092203 266.1235795092203 235.6548295092203 C 263.3621557602203 235.6548295092203 261.1235795092203 233.41625325822028 261.1235795092203 230.6548295092203" stroke-opacity="1" stroke-linecap="round" stroke-miterlimit="10" stroke-dasharray=""/><path fill="none" stroke="rgb(255,0,0)" paint-order="fill stroke markers" d=" M 270.85470773009195 258.97970773009195 C 270.85470773009195 256.21828398109193 273.09328398109193 253.97970773009195 275.85470773009195 253.97970773009195 C 278.61613147909196 253.97970773009195 280.85470773009195 256.21828398109193 280.85470773009195 258.97970773009195 C 280.85470773009195 261.74113147909196 278.61613147909196 263.97970773009195 275.85470773009195 263.97970773009195 C 273.09328398109193 263.97970773009195 270.85470773009195 261.74113147909196 270.85470773009195 258.97970773009195" stroke-opacity="1" stroke-linecap="round" stroke-miterlimit="10" stroke-dasharray=""/><path fill="none" stroke="rgb(255,0,0)" paint-order="fill stroke markers" d=" M 274.19338466261496 284.97463466261496 C 274.19338466261496 282.21321091361494 276.43196091361494 279.97463466261496 279.19338466261496 279.97463466261496 C 281.954808411615 279.97463466261496 284.19338466261496 282.21321091361494 284.19338466261496 284.97463466261496 C 284.19338466261496 287.736058411615 281.954808411615 289.97463466261496 279.19338466261496 289.97463466261496 C 276.43196091361494 289.97463466261496 274.19338466261496 287.736058411615 274.19338466261496 284.97463466261496" stroke-opacity="1" stroke-linecap="round" stroke-miterlimit="10" stroke-dasharray=""/><path fill="none" stroke="rgb(255,0,0)" paint-order="fill stroke markers" d=" M 271.1396103067893 308.6396103067893 C 271.1396103067893 305.87818655778926 273.37818655778926 303.6396103067893 276.1396103067893 303.6396103067893 C 278.9010340557893 303.6396103067893 281.1396103067893 305.87818655778926 281.1396103067893 308.6396103067893 C 281.1396103067893 311.4010340557893 278.9010340557893 313.6396103067893 276.1396103067893 313.6396103067893 C 273.37818655778926 313.6396103067893 271.1396103067893 311.4010340557893 271.1396103067893 308.6396103067893" stroke-opacity="1" stroke-linecap="round" stroke-miterlimit="10" stroke-dasharray=""/><path fill="none" stroke="rgb(255,0,0)" paint-order="fill stroke markers" d=" M 261.69338466261496 329.97463466261496 C 261.69338466261496 327.21321091361494 263.93196091361494 324.97463466261496 266.69338466261496 324.97463466261496 C 269.454808411615 324.97463466261496 271.69338466261496 327.21321091361494 271.69338466261496 329.97463466261496 C 271.69338466261496 332.736058411615 269.454808411615 334.97463466261496 266.69338466261496 334.97463466261496 C 263.93196091361494 334.97463466261496 261.69338466261496 332.736058411615 261.69338466261496 329.97463466261496" stroke-opacity="1" stroke-linecap="round" stroke-miterlimit="10" stroke-dasharray=""/><path fill="none" stroke="rgb(255,0,0)" paint-order="fill stroke markers" d=" M 245.85470773009195 348.97970773009195 C 245.85470773009195 346.21828398109193 248.09328398109196 343.97970773009195 250.85470773009195 343.97970773009195 C 253.61613147909193 343.97970773009195 255.85470773009195 346.21828398109193 255.85470773009195 348.97970773009195 C 255.85470773009195 351.74113147909196 253.61613147909193 353.97970773009195 250.85470773009195 353.97970773009195 C 248.09328398109196 353.97970773009195 245.85470773009195 351.74113147909196 245.85470773009195 348.97970773009195" stroke-opacity="1" stroke-linecap="round" stroke-miterlimit="10" stroke-dasharray=""/><path fill="none" stroke="rgb(255,0,0)" paint-order="fill stroke markers" d=" M 223.6235795092203 365.6548295092203 C 223.6235795092203 362.8934057602203 225.8621557602203 360.6548295092203 228.6235795092203 360.6548295092203 C 231.38500325822028 360.6548295092203 233.6235795092203 362.8934057602203 233.6235795092203 365.6548295092203 C 233.6235795092203 368.4162532582203 231.38500325822028 370.6548295092203 228.6235795092203 370.6548295092203 C 225.8621557602203 370.6548295092203 223.6235795092203 368.4162532582203 223.6235795092203 365.6548295092203" stroke-opacity="1" stroke-linecap="round" stroke-miterlimit="10" stroke-dasharray=""/><path fill="none" stroke="rgb(255,0,0)" paint-order="fill stroke markers" d=" M 195 380 C 195 377.238576251 197.238576251 375 200 375 C 202.761423749 375 205 377.238576251 205 380 C 205 382.761423749 202.761423749 385 200 385 C 197.238576251 385 195 382.761423749 195 380" stroke-opacity="1" stroke-linecap="round" stroke-miterlimit="10" stroke-dasharray=""/><path fill="none" stroke="rgb(255,0,0)" paint-order="fill stroke markers" d=" M 322.27922061357856 327.27922061357856 C 322.27922061357856 324.51779686457854 324.51779686457854 322.27922061357856 327.27922061357856 322.27922061357856 C 330.0406443625786 322.27922061357856 332.27922061357856 324.51779686457854 332.27922061357856 327.27922061357856 C 332.27922061357856 330.0406443625786 330.0406443625786 332.27922061357856 327.27922061357856 332.27922061357856 C 324.51779686457854 332.27922061357856 322.27922061357856 330.0406443625786 322.27922061357856 327.27922061357856" stroke-opacity="1" stroke-linecap="round" stroke-miterlimit="10" stroke-dasharray=""/><path fill="none" stroke="rgb(255,0,0)" paint-order="fill stroke markers" d=" M 300.18213370149897 305.96338370149897 C 300.18213370149897 303.20195995249895 302.42070995249895 300.96338370149897 305.18213370149897 300.96338370149897 C 307.943557450499 300.96338370149897 310.18213370149897 303.20195995249895 310.18213370149897 305.96338370149897 C 310.18213370149897 308.724807450499 307.943557450499 310.96338370149897 305.18213370149897 310.96338370149897 C 302.42070995249895 310.96338370149897 300.18213370149897 308.724807450499 300.18213370149897 305.96338370149897" stroke-opacity="1" stroke-linecap="round" stroke-miterlimit="10" stroke-dasharray=""/><path fill="none" stroke="rgb(255,0,0)" paint-order="fill stroke markers" d=" M 279.8528137423857 287.9778137423857 C 279.8528137423857 285.2163899933857 282.0913899933857 282.9778137423857 284.8528137423857 282.9778137423857 C 287.6142374913857 282.9778137423857 289.8528137423857 285.2163899933857 289.8528137423857 287.9778137423857 C 289.8528137423857 290.7392374913857 287.6142374913857 292.9778137423857 284.8528137423857 292.9778137423857 C 282.0913899933857 292.9778137423857 279.8528137423857 290.7392374913857 279.8528137423857 287.9778137423857" stroke-opacity="1" stroke-linecap="round" stroke-miterlimit="10" stroke-dasharray=""/><path fill="none" stroke="rgb(255,0,0)" paint-order="fill stroke markers" d=" M 261.2912607362388 273.3225107362388 C 261.2912607362388 270.5610869872388 263.5298369872388 268.3225107362388 266.2912607362388 268.3225107362388 C 269.05268448523884 268.3225107362388 271.2912607362388 270.5610869872388 271.2912607362388 273.3225107362388 C 271.2912607362388 276.08393448523884 269.05268448523884 278.3225107362388 266.2912607362388 278.3225107362388 C 263.5298369872388 278.3225107362388 261.2912607362388 276.08393448523884 261.2912607362388 273.3225107362388" stroke-opacity="1" stroke-linecap="round" stroke-miterlimit="10" stroke-dasharray=""/><path fill="none" stroke="rgb(255,0,0)" paint-order="fill stroke markers" d=" M 244.49747468305833 261.99747468305833 C 244.49747468305833 259.2360509340583 246.73605093405834 256.99747468305833 249.49747468305833 256.99747468305833 C 252.25889843205832 256.99747468305833 254.49747468305833 259.2360509340583 254.49747468305833 261.99747468305833 C 254.49747468305833 264.75889843205834 252.25889843205832 266.99747468305833 249.49747468305833 266.99747468305833 C 246.73605093405834 266.99747468305833 244.49747468305833 264.75889843205834 244.49747468305833 261.99747468305833" stroke-opacity="1" stroke-linecap="round" stroke-miterlimit="10" stroke-dasharray=""/><path fill="none" stroke="rgb(255,0,0)" paint-order="fill stroke markers" d=" M 229.4714555828442 254.0027055828442 C 229.4714555828442 251.2412818338442 231.7100318338442 249.0027055828442 234.4714555828442 249.0027055828442 C 237.23287933184417 249.0027055828442 239.4714555828442 251.2412818338442 239.4714555828442 254.0027055828442 C 239.4714555828442 256.7641293318442 237.23287933184417 259.0027055828442 234.4714555828442 259.0027055828442 C 231.7100318338442 259.0027055828442 229.4714555828442 256.7641293318442 229.4714555828442 254.0027055828442" stroke-opacity="1" stroke-linecap="round" stroke-miterlimit="10" stroke-dasharray=""/><path fill="none" stroke="rgb(255,0,0)" paint-order="fill stroke markers" d=" M 216.21320343559643 249.33820343559643 C 216.21320343559643 246.57677968659644 218.45177968659644 244.33820343559643 221.21320343559643 244.33820343559643 C 223.97462718459641 244.33820343559643 226.21320343559643 246.57677968659644 226.21320343559643 249.33820343559643 C 226.21320343559643 252.09962718459641 223.97462718459641 254.33820343559643 221.21320343559643 254.33820343559643 C 218.45177968659644 254.33820343559643 216.21320343559643 252.09962718459641 216.21320343559643 249.33820343559643" stroke-opacity="1" stroke-linecap="round" stroke-miterlimit="10" stroke-dasharray=""/><path fill="none" stroke="rgb(255,0,0)" paint-order="fill stroke markers" d=" M 204.72271824131502 248.00396824131502 C 204.72271824131502 245.24254449231503 206.96129449231503 243.00396824131502 209.72271824131502 243.00396824131502 C 212.484141990315 243.00396824131502 214.72271824131502 245.24254449231503 214.72271824131502 248.00396824131502 C 214.72271824131502 250.765391990315 212.484141990315 253.00396824131502 209.72271824131502 253.00396824131502 C 206.96129449231503 253.00396824131502 204.72271824131502 250.765391990315 204.72271824131502 248.00396824131502" stroke-opacity="1" stroke-linecap="round" stroke-miterlimit="10" stroke-dasharray=""/><path fill="none" stroke="rgb(255,0,0)" paint-order="fill stroke markers" d=" M 195 250 C 195 247.238576251 197.238576251 245 200 245 C 202.761423749 245 205 247.238576251 205 250 C 205 252.761423749 202.761423749 255 200 255 C 197.238576251 255 195 252.761423749 195 250" stroke-opacity="1" stroke-linecap="round" stroke-miterlimit="10" stroke-dasharray=""/><path fill="none" stroke="rgb(255,0,0)" paint-order="fill stroke markers" d=" M 230.35533905932738 235.35533905932738 C 230.35533905932738 232.5939153103274 232.5939153103274 230.35533905932738 235.35533905932738 230.35533905932738 C 238.11676280832737 230.35533905932738 240.35533905932738 232.5939153103274 240.35533905932738 235.35533905932738 C 240.35533905932738 238.11676280832737 238.11676280832737 240.35533905932738 235.35533905932738 240.35533905932738 C 232.5939153103274 240.35533905932738 230.35533905932738 238.11676280832737 230.35533905932738 235.35533905932738" stroke-opacity="1" stroke-linecap="round" stroke-miterlimit="10" stroke-dasharray=""/><path fill="none" stroke="rgb(255,0,0)" paint-order="fill stroke markers" d=" M 220.08019364521036 268.43266928938465 C 220.08019364521036 265.67124554038463 222.31876989621037 263.43266928938465 225.08019364521036 263.43266928938465 C 227.84161739421035 263.43266928938465 230.08019364521036 265.67124554038463 230.08019364521036 268.43266928938465 C 230.08019364521036 271.19409303838466 227.84161739421035 273.43266928938465 225.08019364521036 273.43266928938465 C 222.31876989621037 273.43266928938465 220.08019364521036 271.19409303838466 220.08019364521036 268.43266928938465" stroke-opacity="1" stroke-linecap="round" stroke-miterlimit="10" stroke-dasharray=""/><path fill="none" stroke="rgb(255,0,0)" paint-order="fill stroke markers" d=" M 206.932426932523 295.3423295092203 C 206.932426932523 292.5809057602203 209.171003183523 290.3423295092203 211.932426932523 290.3423295092203 C 214.69385068152297 290.3423295092203 216.932426932523 292.5809057602203 216.932426932523 295.3423295092203 C 216.932426932523 298.1037532582203 214.69385068152297 300.3423295092203 211.932426932523 300.3423295092203 C 209.171003183523 300.3423295092203 206.932426932523 298.1037532582203 206.932426932523 295.3423295092203" stroke-opacity="1" stroke-linecap="round" stroke-miterlimit="10" stroke-dasharray=""/><path fill="none" stroke="rgb(255,0,0)" paint-order="fill stroke markers" d=" M 190.91203892126526 316.08431971883425 C 190.91203892126526 313.32289596983424 193.15061517226528 311.08431971883425 195.91203892126526 311.08431971883425 C 198.67346267026525 311.08431971883425 200.91203892126526 313.32289596983424 200.91203892126526 316.08431971883425 C 200.91203892126526 318.84574346783427 198.67346267026525 321.08431971883425 195.91203892126526 321.08431971883425 C 193.15061517226528 321.08431971883425 190.91203892126526 318.84574346783427 190.91203892126526 316.08431971883425" stroke-opacity="1" stroke-linecap="round" stroke-miterlimit="10" stroke-dasharray=""/><path fill="none" stroke="rgb(255,0,0)" paint-order="fill stroke markers" d=" M 172.01902961143722 330.6586399182265 C 172.01902961143722 327.8972161692265 174.25760586243723 325.6586399182265 177.01902961143722 325.6586399182265 C 179.7804533604372 325.6586399182265 182.01902961143722 327.8972161692265 182.01902961143722 330.6586399182265 C 182.01902961143722 333.42006366722654 179.7804533604372 335.6586399182265 177.01902961143722 335.6586399182265 C 174.25760586243723 335.6586399182265 172.01902961143722 333.42006366722654 172.01902961143722 330.6586399182265" stroke-opacity="1" stroke-linecap="round" stroke-miterlimit="10" stroke-dasharray=""/><path fill="none" stroke="rgb(255,0,0)" paint-order="fill stroke markers" d=" M 150.2533990030388 339.065290107397 C 150.2533990030388 336.303866358397 152.4919752540388 334.065290107397 155.2533990030388 334.065290107397 C 158.01482275203878 334.065290107397 160.2533990030388 336.303866358397 160.2533990030388 339.065290107397 C 160.2533990030388 341.826713856397 158.01482275203878 344.065290107397 155.2533990030388 344.065290107397 C 152.4919752540388 344.065290107397 150.2533990030388 341.826713856397 150.2533990030388 339.065290107397" stroke-opacity="1" stroke-linecap="round" stroke-miterlimit="10" stroke-dasharray=""/><path fill="none" stroke="rgb(255,0,0)" paint-order="fill stroke markers" d=" M 125.61514709607002 341.3042702863459 C 125.61514709607002 338.5428465373459 127.85372334707002 336.3042702863459 130.61514709607002 336.3042702863459 C 133.37657084507 336.3042702863459 135.61514709607002 338.5428465373459 135.61514709607002 341.3042702863459 C 135.61514709607002 344.0656940353459 133.37657084507 346.3042702863459 130.61514709607002 346.3042702863459 C 127.85372334707002 346.3042702863459 125.61514709607002 344.0656940353459 125.61514709607002 341.3042702863459" stroke-opacity="1" stroke-linecap="round" stroke-miterlimit="10" stroke-dasharray=""/><path fill="none" stroke="rgb(255,0,0)" paint-order="fill stroke markers" d=" M 98.10427389053092 337.3755804550731 C 98.10427389053092 334.61415670607306 100.34285014153092 332.3755804550731 103.10427389053092 332.3755804550731 C 105.86569763953092 332.3755804550731 108.10427389053092 334.61415670607306 108.10427389053092 337.3755804550731 C 108.10427389053092 340.1370042040731 105.86569763953092 342.3755804550731 103.10427389053092 342.3755804550731 C 100.34285014153092 342.3755804550731 98.10427389053092 340.1370042040731 98.10427389053092 337.3755804550731" stroke-opacity="1" stroke-linecap="round" stroke-miterlimit="10" stroke-dasharray=""/><path fill="none" stroke="rgb(255,0,0)" paint-order="fill stroke markers" d=" M 67.72077938642146 327.27922061357856 C 67.72077938642146 324.51779686457854 69.95935563742145 322.27922061357856 72.72077938642146 322.27922061357856 C 75.48220313542146 322.27922061357856 77.72077938642146 324.51779686457854 77.72077938642146 327.27922061357856 C 77.72077938642146 330.0406443625786 75.48220313542146 332.27922061357856 72.72077938642146 332.27922061357856 C 69.95935563742145 332.27922061357856 67.72077938642146 330.0406443625786 67.72077938642146 327.27922061357856" stroke-opacity="1" stroke-linecap="round" stroke-miterlimit="10" stroke-dasharray=""/><path fill="none" stroke="rgb(255,0,0)" paint-order="fill stroke markers" d=" M 195 380 C 195 377.238576251 197.238576251 375 200 375 C 202.761423749 375 205 377.238576251 205 380 C 205 382.761423749 202.761423749 385 200 385 C 197.238576251 385 195 382.761423749 195 380" stroke-opacity="1" stroke-linecap="round" stroke-miterlimit="10" stroke-dasharray=""/><path fill="none" stroke="rgb(255,0,0)" paint-order="fill stroke markers" d=" M 194.447572827198 349.30242717280197 C 194.447572827198 346.54100342380195 196.686149078198 344.30242717280197 199.447572827198 344.30242717280197 C 202.208996576198 344.30242717280197 204.447572827198 346.54100342380195 204.447572827198 349.30242717280197 C 204.447572827198 352.063850921802 202.208996576198 354.30242717280197 199.447572827198 354.30242717280197 C 196.686149078198 354.30242717280197 194.447572827198 352.063850921802 194.447572827198 349.30242717280197" stroke-opacity="1" stroke-linecap="round" stroke-miterlimit="10" stroke-dasharray=""/><path fill="none" stroke="rgb(255,0,0)" paint-order="fill stroke markers" d=" M 192.79029130879204 322.20970869120794 C 192.79029130879204 319.4482849422079 195.02886755979205 317.20970869120794 197.79029130879204 317.20970869120794 C 200.55171505779202 317.20970869120794 202.79029130879204 319.4482849422079 202.79029130879204 322.20970869120794 C 202.79029130879204 324.97113244020795 200.55171505779202 327.20970869120794 197.79029130879204 327.20970869120794 C 195.02886755979205 327.20970869120794 192.79029130879204 324.97113244020795 192.79029130879204 322.20970869120794" stroke-opacity="1" stroke-linecap="round" stroke-miterlimit="10" stroke-dasharray=""/><path fill="none" stroke="rgb(255,0,0)" paint-order="fill stroke markers" d=" M 190.0281554447821 298.7218445552179 C 190.0281554447821 295.9604208062179 192.2667316957821 293.7218445552179 195.0281554447821 293.7218445552179 C 197.7895791937821 293.7218445552179 200.0281554447821 295.9604208062179 200.0281554447821 298.7218445552179 C 200.0281554447821 301.4832683042179 197.7895791937821 303.7218445552179 195.0281554447821 303.7218445552179 C 192.2667316957821 303.7218445552179 190.0281554447821 301.4832683042179 190.0281554447821 298.7218445552179" stroke-opacity="1" stroke-linecap="round" stroke-miterlimit="10" stroke-dasharray=""/><path fill="none" stroke="rgb(255,0,0)" paint-order="fill stroke markers" d=" M 186.16116523516814 278.83883476483186 C 186.16116523516814 276.07741101583184 188.39974148616815 273.83883476483186 191.16116523516814 273.83883476483186 C 193.92258898416813 273.83883476483186 196.16116523516814 276.07741101583184 196.16116523516814 278.83883476483186 C 196.16116523516814 281.6002585138319 193.92258898416813 283.83883476483186 191.16116523516814 283.83883476483186 C 188.39974148616815 283.83883476483186 186.16116523516814 281.6002585138319 186.16116523516814 278.83883476483186" stroke-opacity="1" stroke-linecap="round" stroke-miterlimit="10" stroke-dasharray=""/><path fill="none" stroke="rgb(255,0,0)" paint-order="fill stroke markers" d=" M 181.18932067995024 262.56067932004976 C 181.18932067995024 259.79925557104974 183.42789693095025 257.56067932004976 186.18932067995024 257.56067932004976 C 188.95074442895023 257.56067932004976 191.18932067995024 259.79925557104974 191.18932067995024 262.56067932004976 C 191.18932067995024 265.3221030690498 188.95074442895023 267.56067932004976 186.18932067995024 267.56067932004976 C 183.42789693095025 267.56067932004976 181.18932067995024 265.3221030690498 181.18932067995024 262.56067932004976" stroke-opacity="1" stroke-linecap="round" stroke-miterlimit="10" stroke-dasharray=""/><path fill="none" stroke="rgb(255,0,0)" paint-order="fill stroke markers" d=" M 175.11262177912835 249.88737822087165 C 175.11262177912835 247.12595447187167 177.35119803012836 244.88737822087165 180.11262177912835 244.88737822087165 C 182.87404552812833 244.88737822087165 185.11262177912835 247.12595447187167 185.11262177912835 249.88737822087165 C 185.11262177912835 252.64880196987164 182.87404552812833 254.88737822087165 180.11262177912835 254.88737822087165 C 177.35119803012836 254.88737822087165 175.11262177912835 252.64880196987164 175.11262177912835 249.88737822087165" stroke-opacity="1" stroke-linecap="round" stroke-miterlimit="10" stroke-dasharray=""/><path fill="none" stroke="rgb(255,0,0)" paint-order="fill stroke markers" d=" M 167.93106853270248 240.81893146729752 C 167.93106853270248 238.05750771829753 170.1696447837025 235.81893146729752 172.93106853270248 235.81893146729752 C 175.69249228170247 235.81893146729752 177.93106853270248 238.05750771829753 177.93106853270248 240.81893146729752 C 177.93106853270248 243.5803552162975 175.69249228170247 245.81893146729752 172.93106853270248 245.81893146729752 C 170.1696447837025 245.81893146729752 167.93106853270248 243.5803552162975 167.93106853270248 240.81893146729752" stroke-opacity="1" stroke-linecap="round" stroke-miterlimit="10" stroke-dasharray=""/><path fill="none" stroke="rgb(255,0,0)" paint-order="fill stroke markers" d=" M 159.64466094067262 235.35533905932738 C 159.64466094067262 232.5939153103274 161.88323719167263 230.35533905932738 164.64466094067262 230.35533905932738 C 167.4060846896726 230.35533905932738 169.64466094067262 232.5939153103274 169.64466094067262 235.35533905932738 C 169.64466094067262 238.11676280832737 167.4060846896726 240.35533905932738 164.64466094067262 240.35533905932738 C 161.88323719167263 240.35533905932738 159.64466094067262 238.11676280832737 159.64466094067262 235.35533905932738" stroke-opacity="1" stroke-linecap="round" stroke-miterlimit="10" stroke-dasharray=""/><path fill="none" stroke="rgb(255,0,0)" paint-order="fill stroke markers" d=" M 195 250 C 195 247.238576251 197.238576251 245 200 245 C 202.761423749 245 205 247.238576251 205 250 C 205 252.761423749 202.761423749 255 200 255 C 197.238576251 255 195 252.761423749 195 250" stroke-opacity="1" stroke-linecap="round" stroke-miterlimit="10" stroke-dasharray=""/><path fill="none" stroke="rgb(255,0,0)" paint-order="fill stroke markers" d=" M 164.3451704907797 266.1235795092203 C 164.3451704907797 263.3621557602203 166.58374674177972 261.1235795092203 169.3451704907797 261.1235795092203 C 172.1065942397797 261.1235795092203 174.3451704907797 263.3621557602203 174.3451704907797 266.1235795092203 C 174.3451704907797 268.8850032582203 172.1065942397797 271.1235795092203 169.3451704907797 271.1235795092203 C 166.58374674177972 271.1235795092203 164.3451704907797 268.8850032582203 164.3451704907797 266.1235795092203" stroke-opacity="1" stroke-linecap="round" stroke-miterlimit="10" stroke-dasharray=""/><path fill="none" stroke="rgb(255,0,0)" paint-order="fill stroke markers" d=" M 136.02029226990805 275.85470773009195 C 136.02029226990805 273.09328398109193 138.25886852090807 270.85470773009195 141.02029226990805 270.85470773009195 C 143.78171601890804 270.85470773009195 146.02029226990805 273.09328398109193 146.02029226990805 275.85470773009195 C 146.02029226990805 278.61613147909196 143.78171601890804 280.85470773009195 141.02029226990805 280.85470773009195 C 138.25886852090807 280.85470773009195 136.02029226990805 278.61613147909196 136.02029226990805 275.85470773009195" stroke-opacity="1" stroke-linecap="round" stroke-miterlimit="10" stroke-dasharray=""/><path fill="none" stroke="rgb(255,0,0)" paint-order="fill stroke markers" d=" M 110.02536533738505 279.19338466261496 C 110.02536533738505 276.43196091361494 112.26394158838505 274.19338466261496 115.02536533738505 274.19338466261496 C 117.78678908638506 274.19338466261496 120.02536533738505 276.43196091361494 120.02536533738505 279.19338466261496 C 120.02536533738505 281.954808411615 117.78678908638506 284.19338466261496 115.02536533738505 284.19338466261496 C 112.26394158838505 284.19338466261496 110.02536533738505 281.954808411615 110.02536533738505 279.19338466261496" stroke-opacity="1" stroke-linecap="round" stroke-miterlimit="10" stroke-dasharray=""/><path fill="none" stroke="rgb(255,0,0)" paint-order="fill stroke markers" d=" M 86.36038969321072 276.1396103067893 C 86.36038969321072 273.37818655778926 88.59896594421072 271.1396103067893 91.36038969321072 271.1396103067893 C 94.12181344221072 271.1396103067893 96.36038969321072 273.37818655778926 96.36038969321072 276.1396103067893 C 96.36038969321072 278.9010340557893 94.12181344221072 281.1396103067893 91.36038969321072 281.1396103067893 C 88.59896594421072 281.1396103067893 86.36038969321072 278.9010340557893 86.36038969321072 276.1396103067893" stroke-opacity="1" stroke-linecap="round" stroke-miterlimit="10" stroke-dasharray=""/><path fill="none" stroke="rgb(255,0,0)" paint-order="fill stroke markers" d=" M 65.02536533738505 266.69338466261496 C 65.02536533738505 263.93196091361494 67.26394158838505 261.69338466261496 70.02536533738505 261.69338466261496 C 72.78678908638506 261.69338466261496 75.02536533738505 263.93196091361494 75.02536533738505 266.69338466261496 C 75.02536533738505 269.454808411615 72.78678908638506 271.69338466261496 70.02536533738505 271.69338466261496 C 67.26394158838505 271.69338466261496 65.02536533738505 269.454808411615 65.02536533738505 266.69338466261496" stroke-opacity="1" stroke-linecap="round" stroke-miterlimit="10" stroke-dasharray=""/><path fill="none" stroke="rgb(255,0,0)" paint-order="fill stroke markers" d=" M 46.02029226990805 250.85470773009195 C 46.02029226990805 248.09328398109196 48.258868520908045 245.85470773009195 51.02029226990805 245.85470773009195 C 53.78171601890805 245.85470773009195 56.02029226990805 248.09328398109196 56.02029226990805 250.85470773009195 C 56.02029226990805 253.61613147909193 53.78171601890805 255.85470773009195 51.02029226990805 255.85470773009195 C 48.258868520908045 255.85470773009195 46.02029226990805 253.61613147909193 46.02029226990805 250.85470773009195" stroke-opacity="1" stroke-linecap="round" stroke-miterlimit="10" stroke-dasharray=""/><path fill="none" stroke="rgb(255,0,0)" paint-order="fill stroke markers" d=" M 29.345170490779694 228.62357950922035 C 29.345170490779694 225.86215576022036 31.583746741779695 223.62357950922035 34.345170490779694 223.62357950922035 C 37.106594239779696 223.62357950922035 39.345170490779694 225.86215576022036 39.345170490779694 228.62357950922035 C 39.345170490779694 231.38500325822034 37.106594239779696 233.62357950922035 34.345170490779694 233.62357950922035 C 31.583746741779695 233.62357950922035 29.345170490779694 231.38500325822034 29.345170490779694 228.62357950922035" stroke-opacity="1" stroke-linecap="round" stroke-miterlimit="10" stroke-dasharray=""/><path fill="none" stroke="rgb(255,0,0)" paint-order="fill stroke markers" d=" M 15 200.00000000000003 C 15 197.23857625100004 17.238576251 195.00000000000003 20 195.00000000000003 C 22.761423749 195.00000000000003 25 197.23857625100004 25 200.00000000000003 C 25 202.76142374900002 22.761423749 205.00000000000003 20 205.00000000000003 C 17.238576251 205.00000000000003 15 202.76142374900002 15 200.00000000000003" stroke-opacity="1" stroke-linecap="round" stroke-miterlimit="10" stroke-dasharray=""/><path fill="none" stroke="rgb(255,0,0)" paint-order="fill stroke markers" d=" M 67.72077938642146 327.27922061357856 C 67.72077938642146 324.51779686457854 69.95935563742145 322.27922061357856 72.72077938642146 322.27922061357856 C 75.48220313542146 322.27922061357856 77.72077938642146 324.51779686457854 77.72077938642146 327.27922061357856 C 77.72077938642146 330.0406443625786 75.48220313542146 332.27922061357856 72.72077938642146 332.27922061357856 C 69.95935563742145 332.27922061357856 67.72077938642146 330.0406443625786 67.72077938642146 327.27922061357856" stroke-opacity="1" stroke-linecap="round" stroke-miterlimit="10" stroke-dasharray=""/><path fill="none" stroke="rgb(255,0,0)" paint-order="fill stroke markers" d=" M 89.03661629850106 305.18213370149897 C 89.03661629850106 302.42070995249895 91.27519254950106 300.18213370149897 94.03661629850106 300.18213370149897 C 96.79804004750106 300.18213370149897 99.03661629850106 302.42070995249895 99.03661629850106 305.18213370149897 C 99.03661629850106 307.943557450499 96.79804004750106 310.18213370149897 94.03661629850106 310.18213370149897 C 91.27519254950106 310.18213370149897 89.03661629850106 307.943557450499 89.03661629850106 305.18213370149897" stroke-opacity="1" stroke-linecap="round" stroke-miterlimit="10" stroke-dasharray=""/><path fill="none" stroke="rgb(255,0,0)" paint-order="fill stroke markers" d=" M 107.0221862576143 284.8528137423857 C 107.0221862576143 282.0913899933857 109.26076250861429 279.8528137423857 112.0221862576143 279.8528137423857 C 114.7836100066143 279.8528137423857 117.0221862576143 282.0913899933857 117.0221862576143 284.8528137423857 C 117.0221862576143 287.6142374913857 114.7836100066143 289.8528137423857 112.0221862576143 289.8528137423857 C 109.26076250861429 289.8528137423857 107.0221862576143 287.6142374913857 107.0221862576143 284.8528137423857" stroke-opacity="1" stroke-linecap="round" stroke-miterlimit="10" stroke-dasharray=""/><path fill="none" stroke="rgb(255,0,0)" paint-order="fill stroke markers" d=" M 121.67748926376117 266.2912607362388 C 121.67748926376117 263.5298369872388 123.91606551476117 261.2912607362388 126.67748926376117 261.2912607362388 C 129.43891301276116 261.2912607362388 131.67748926376117 263.5298369872388 131.67748926376117 266.2912607362388 C 131.67748926376117 269.05268448523884 129.43891301276116 271.2912607362388 126.67748926376117 271.2912607362388 C 123.91606551476117 271.2912607362388 121.67748926376117 269.05268448523884 121.67748926376117 266.2912607362388" stroke-opacity="1" stroke-linecap="round" stroke-miterlimit="10" stroke-dasharray=""/><path fill="none" stroke="rgb(255,0,0)" paint-order="fill stroke markers" d=" M 133.00252531694167 249.49747468305833 C 133.00252531694167 246.73605093405834 135.24110156794168 244.49747468305833 138.00252531694167 244.49747468305833 C 140.76394906594166 244.49747468305833 143.00252531694167 246.73605093405834 143.00252531694167 249.49747468305833 C 143.00252531694167 252.25889843205832 140.76394906594166 254.49747468305833 138.00252531694167 254.49747468305833 C 135.24110156794168 254.49747468305833 133.00252531694167 252.25889843205832 133.00252531694167 249.49747468305833" stroke-opacity="1" stroke-linecap="round" stroke-miterlimit="10" stroke-dasharray=""/><path fill="none" stroke="rgb(255,0,0)" paint-order="fill stroke markers" d=" M 140.9972944171558 234.4714555828442 C 140.9972944171558 231.7100318338442 143.23587066815583 229.4714555828442 145.9972944171558 229.4714555828442 C 148.7587181661558 229.4714555828442 150.9972944171558 231.7100318338442 150.9972944171558 234.4714555828442 C 150.9972944171558 237.23287933184417 148.7587181661558 239.4714555828442 145.9972944171558 239.4714555828442 C 143.23587066815583 239.4714555828442 140.9972944171558 237.23287933184417 140.9972944171558 234.4714555828442" stroke-opacity="1" stroke-linecap="round" stroke-miterlimit="10" stroke-dasharray=""/><path fill="none" stroke="rgb(255,0,0)" paint-order="fill stroke markers" d=" M 145.66179656440357 221.21320343559643 C 145.66179656440357 218.45177968659644 147.90037281540359 216.21320343559643 150.66179656440357 216.21320343559643 C 153.42322031340356 216.21320343559643 155.66179656440357 218.45177968659644 155.66179656440357 221.21320343559643 C 155.66179656440357 223.97462718459641 153.42322031340356 226.21320343559643 150.66179656440357 226.21320343559643 C 147.90037281540359 226.21320343559643 145.66179656440357 223.97462718459641 145.66179656440357 221.21320343559643" stroke-opacity="1" stroke-linecap="round" stroke-miterlimit="10" stroke-dasharray=""/><path fill="none" stroke="rgb(255,0,0)" paint-order="fill stroke markers" d=" M 146.99603175868498 209.72271824131502 C 146.99603175868498 206.96129449231503 149.234608009685 204.72271824131502 151.99603175868498 204.72271824131502 C 154.75745550768497 204.72271824131502 156.99603175868498 206.96129449231503 156.99603175868498 209.72271824131502 C 156.99603175868498 212.484141990315 154.75745550768497 214.72271824131502 151.99603175868498 214.72271824131502 C 149.234608009685 214.72271824131502 146.99603175868498 212.484141990315 146.99603175868498 209.72271824131502" stroke-opacity="1" stroke-linecap="round" stroke-miterlimit="10" stroke-dasharray=""/><path fill="none" stroke="rgb(255,0,0)" paint-order="fill stroke markers" d=" M 145 200 C 145 197.238576251 147.238576251 195 150 195 C 152.761423749 195 155 197.238576251 155 200 C 155 202.761423749 152.761423749 205 150 205 C 147.238576251 205 145 202.761423749 145 200" stroke-opacity="1" stroke-linecap="round" stroke-miterlimit="10" stroke-dasharray=""/><path fill="none" stroke="rgb(255,0,0)" paint-order="fill stroke markers" d=" M 159.64466094067262 235.35533905932738 C 159.64466094067262 232.5939153103274 161.88323719167263 230.35533905932738 164.64466094067262 230.35533905932738 C 167.4060846896726 230.35533905932738 169.64466094067262 232.5939153103274 169.64466094067262 235.35533905932738 C 169.64466094067262 238.11676280832737 167.4060846896726 240.35533905932738 164.64466094067262 240.35533905932738 C 161.88323719167263 240.35533905932738 159.64466094067262 238.11676280832737 159.64466094067262 235.35533905932738" stroke-opacity="1" stroke-linecap="round" stroke-miterlimit="10" stroke-dasharray=""/><path fill="none" stroke="rgb(255,0,0)" paint-order="fill stroke markers" d=" M 126.56733071061532 225.08019364521036 C 126.56733071061532 222.31876989621037 128.80590696161534 220.08019364521036 131.56733071061532 220.08019364521036 C 134.3287544596153 220.08019364521036 136.56733071061532 222.31876989621037 136.56733071061532 225.08019364521036 C 136.56733071061532 227.84161739421035 134.3287544596153 230.08019364521036 131.56733071061532 230.08019364521036 C 128.80590696161534 230.08019364521036 126.56733071061532 227.84161739421035 126.56733071061532 225.08019364521036" stroke-opacity="1" stroke-linecap="round" stroke-miterlimit="10" stroke-dasharray=""/><path fill="none" stroke="rgb(255,0,0)" paint-order="fill stroke markers" d=" M 99.65767049077968 211.932426932523 C 99.65767049077968 209.171003183523 101.89624674177968 206.932426932523 104.65767049077968 206.932426932523 C 107.41909423977968 206.932426932523 109.65767049077968 209.171003183523 109.65767049077968 211.932426932523 C 109.65767049077968 214.69385068152297 107.41909423977968 216.932426932523 104.65767049077968 216.932426932523 C 101.89624674177968 216.932426932523 99.65767049077968 214.69385068152297 99.65767049077968 211.932426932523" stroke-opacity="1" stroke-linecap="round" stroke-miterlimit="10" stroke-dasharray=""/><path fill="none" stroke="rgb(255,0,0)" paint-order="fill stroke markers" d=" M 78.91568028116575 195.91203892126526 C 78.91568028116575 193.15061517226528 81.15425653216575 190.91203892126526 83.91568028116575 190.91203892126526 C 86.67710403016575 190.91203892126526 88.91568028116575 193.15061517226528 88.91568028116575 195.91203892126526 C 88.91568028116575 198.67346267026525 86.67710403016575 200.91203892126526 83.91568028116575 200.91203892126526 C 81.15425653216575 200.91203892126526 78.91568028116575 198.67346267026525 78.91568028116575 195.91203892126526" stroke-opacity="1" stroke-linecap="round" stroke-miterlimit="10" stroke-dasharray=""/><path fill="none" stroke="rgb(255,0,0)" paint-order="fill stroke markers" d=" M 64.3413600817735 177.01902961143722 C 64.3413600817735 174.25760586243723 66.5799363327735 172.01902961143722 69.3413600817735 172.01902961143722 C 72.1027838307735 172.01902961143722 74.3413600817735 174.25760586243723 74.3413600817735 177.01902961143722 C 74.3413600817735 179.7804533604372 72.1027838307735 182.01902961143722 69.3413600817735 182.01902961143722 C 66.5799363327735 182.01902961143722 64.3413600817735 179.7804533604372 64.3413600817735 177.01902961143722" stroke-opacity="1" stroke-linecap="round" stroke-miterlimit="10" stroke-dasharray=""/><path fill="none" stroke="rgb(255,0,0)" paint-order="fill stroke markers" d=" M 55.93470989260295 155.2533990030388 C 55.93470989260295 152.4919752540388 58.17328614360295 150.2533990030388 60.93470989260295 150.2533990030388 C 63.696133641602955 150.2533990030388 65.93470989260295 152.4919752540388 65.93470989260295 155.2533990030388 C 65.93470989260295 158.01482275203878 63.696133641602955 160.2533990030388 60.93470989260295 160.2533990030388 C 58.17328614360295 160.2533990030388 55.93470989260295 158.01482275203878 55.93470989260295 155.2533990030388" stroke-opacity="1" stroke-linecap="round" stroke-miterlimit="10" stroke-dasharray=""/><path fill="none" stroke="rgb(255,0,0)" paint-order="fill stroke markers" d=" M 53.69572971365409 130.61514709607005 C 53.69572971365409 127.85372334707004 55.93430596465409 125.61514709607005 58.69572971365409 125.61514709607005 C 61.45715346265409 125.61514709607005 63.69572971365409 127.85372334707004 63.69572971365409 130.61514709607005 C 63.69572971365409 133.37657084507003 61.45715346265409 135.61514709607005 58.69572971365409 135.61514709607005 C 55.93430596465409 135.61514709607005 53.69572971365409 133.37657084507003 53.69572971365409 130.61514709607005" stroke-opacity="1" stroke-linecap="round" stroke-miterlimit="10" stroke-dasharray=""/><path fill="none" stroke="rgb(255,0,0)" paint-order="fill stroke markers" d=" M 57.6244195449269 103.10427389053092 C 57.6244195449269 100.34285014153092 59.8629957959269 98.10427389053092 62.6244195449269 98.10427389053092 C 65.3858432939269 98.10427389053092 67.6244195449269 100.34285014153092 67.6244195449269 103.10427389053092 C 67.6244195449269 105.86569763953092 65.3858432939269 108.10427389053092 62.6244195449269 108.10427389053092 C 59.8629957959269 108.10427389053092 57.6244195449269 105.86569763953092 57.6244195449269 103.10427389053092" stroke-opacity="1" stroke-linecap="round" stroke-miterlimit="10" stroke-dasharray=""/><path fill="none" stroke="rgb(255,0,0)" paint-order="fill stroke markers" d=" M 67.72077938642141 72.72077938642146 C 67.72077938642141 69.95935563742145 69.95935563742141 67.72077938642146 72.72077938642141 67.72077938642146 C 75.48220313542141 67.72077938642146 77.72077938642141 69.95935563742145 77.72077938642141 72.72077938642146 C 77.72077938642141 75.48220313542146 75.48220313542141 77.72077938642146 72.72077938642141 77.72077938642146 C 69.95935563742141 77.72077938642146 67.72077938642141 75.48220313542146 67.72077938642141 72.72077938642146" stroke-opacity="1" stroke-linecap="round" stroke-miterlimit="10" stroke-dasharray=""/><path fill="none" stroke="rgb(255,0,0)" paint-order="fill stroke markers" d=" M 15 200.00000000000003 C 15 197.23857625100004 17.238576251 195.00000000000003 20 195.00000000000003 C 22.761423749 195.00000000000003 25 197.23857625100004 25 200.00000000000003 C 25 202.76142374900002 22.761423749 205.00000000000003 20 205.00000000000003 C 17.238576251 205.00000000000003 15 202.76142374900002 15 200.00000000000003" stroke-opacity="1" stroke-linecap="round" stroke-miterlimit="10" stroke-dasharray=""/><path fill="none" stroke="rgb(255,0,0)" paint-order="fill stroke markers" d=" M 45.69757282719801 199.44757282719803 C 45.69757282719801 196.68614907819804 47.93614907819801 194.44757282719803 50.69757282719801 194.44757282719803 C 53.45899657619801 194.44757282719803 55.69757282719801 196.68614907819804 55.69757282719801 199.44757282719803 C 55.69757282719801 202.20899657619802 53.45899657619801 204.44757282719803 50.69757282719801 204.44757282719803 C 47.93614907819801 204.44757282719803 45.69757282719801 202.20899657619802 45.69757282719801 199.44757282719803" stroke-opacity="1" stroke-linecap="round" stroke-miterlimit="10" stroke-dasharray=""/><path fill="none" stroke="rgb(255,0,0)" paint-order="fill stroke markers" d=" M 72.79029130879204 197.79029130879204 C 72.79029130879204 195.02886755979205 75.02886755979203 192.79029130879204 77.79029130879204 192.79029130879204 C 80.55171505779204 192.79029130879204 82.79029130879204 195.02886755979205 82.79029130879204 197.79029130879204 C 82.79029130879204 200.55171505779202 80.55171505779204 202.79029130879204 77.79029130879204 202.79029130879204 C 75.02886755979203 202.79029130879204 72.79029130879204 200.55171505779202 72.79029130879204 197.79029130879204" stroke-opacity="1" stroke-linecap="round" stroke-miterlimit="10" stroke-dasharray=""/><path fill="none" stroke="rgb(255,0,0)" paint-order="fill stroke markers" d=" M 96.27815544478209 195.0281554447821 C 96.27815544478209 192.2667316957821 98.51673169578208 190.0281554447821 101.27815544478209 190.0281554447821 C 104.03957919378209 190.0281554447821 106.27815544478209 192.2667316957821 106.27815544478209 195.0281554447821 C 106.27815544478209 197.7895791937821 104.03957919378209 200.0281554447821 101.27815544478209 200.0281554447821 C 98.51673169578208 200.0281554447821 96.27815544478209 197.7895791937821 96.27815544478209 195.0281554447821" stroke-opacity="1" stroke-linecap="round" stroke-miterlimit="10" stroke-dasharray=""/><path fill="none" stroke="rgb(255,0,0)" paint-order="fill stroke markers" d=" M 116.16116523516816 191.16116523516814 C 116.16116523516816 188.39974148616815 118.39974148616815 186.16116523516814 121.16116523516816 186.16116523516814 C 123.92258898416816 186.16116523516814 126.16116523516816 188.39974148616815 126.16116523516816 191.16116523516814 C 126.16116523516816 193.92258898416813 123.92258898416816 196.16116523516814 121.16116523516816 196.16116523516814 C 118.39974148616815 196.16116523516814 116.16116523516816 193.92258898416813 116.16116523516816 191.16116523516814" stroke-opacity="1" stroke-linecap="round" stroke-miterlimit="10" stroke-dasharray=""/><path fill="none" stroke="rgb(255,0,0)" paint-order="fill stroke markers" d=" M 132.43932067995024 186.18932067995024 C 132.43932067995024 183.42789693095025 134.67789693095025 181.18932067995024 137.43932067995024 181.18932067995024 C 140.20074442895023 181.18932067995024 142.43932067995024 183.42789693095025 142.43932067995024 186.18932067995024 C 142.43932067995024 188.95074442895023 140.20074442895023 191.18932067995024 137.43932067995024 191.18932067995024 C 134.67789693095025 191.18932067995024 132.43932067995024 188.95074442895023 132.43932067995024 186.18932067995024" stroke-opacity="1" stroke-linecap="round" stroke-miterlimit="10" stroke-dasharray=""/><path fill="none" stroke="rgb(255,0,0)" paint-order="fill stroke markers" d=" M 145.11262177912835 180.11262177912835 C 145.11262177912835 177.35119803012836 147.35119803012836 175.11262177912835 150.11262177912835 175.11262177912835 C 152.87404552812833 175.11262177912835 155.11262177912835 177.35119803012836 155.11262177912835 180.11262177912835 C 155.11262177912835 182.87404552812833 152.87404552812833 185.11262177912835 150.11262177912835 185.11262177912835 C 147.35119803012836 185.11262177912835 145.11262177912835 182.87404552812833 145.11262177912835 180.11262177912835" stroke-opacity="1" stroke-linecap="round" stroke-miterlimit="10" stroke-dasharray=""/><path fill="none" stroke="rgb(255,0,0)" paint-order="fill stroke markers" d=" M 154.18106853270248 172.93106853270248 C 154.18106853270248 170.1696447837025 156.4196447837025 167.93106853270248 159.18106853270248 167.93106853270248 C 161.94249228170247 167.93106853270248 164.18106853270248 170.1696447837025 164.18106853270248 172.93106853270248 C 164.18106853270248 175.69249228170247 161.94249228170247 177.93106853270248 159.18106853270248 177.93106853270248 C 156.4196447837025 177.93106853270248 154.18106853270248 175.69249228170247 154.18106853270248 172.93106853270248" stroke-opacity="1" stroke-linecap="round" stroke-miterlimit="10" stroke-dasharray=""/><path fill="none" stroke="rgb(255,0,0)" paint-order="fill stroke markers" d=" M 159.64466094067262 164.64466094067262 C 159.64466094067262 161.88323719167263 161.88323719167263 159.64466094067262 164.64466094067262 159.64466094067262 C 167.4060846896726 159.64466094067262 169.64466094067262 161.88323719167263 169.64466094067262 164.64466094067262 C 169.64466094067262 167.4060846896726 167.4060846896726 169.64466094067262 164.64466094067262 169.64466094067262 C 161.88323719167263 169.64466094067262 159.64466094067262 167.4060846896726 159.64466094067262 164.64466094067262" stroke-opacity="1" stroke-linecap="round" stroke-miterlimit="10" stroke-dasharray=""/><path fill="none" stroke="rgb(255,0,0)" paint-order="fill stroke markers" d=" M 145 200 C 145 197.238576251 147.238576251 195 150 195 C 152.761423749 195 155 197.238576251 155 200 C 155 202.761423749 152.761423749 205 150 205 C 147.238576251 205 145 202.761423749 145 200" stroke-opacity="1" stroke-linecap="round" stroke-miterlimit="10" stroke-dasharray=""/><path fill="none" stroke="rgb(255,0,0)" paint-order="fill stroke markers" d=" M 128.87642049077968 169.3451704907797 C 128.87642049077968 166.58374674177972 131.1149967417797 164.3451704907797 133.87642049077968 164.3451704907797 C 136.63784423977967 164.3451704907797 138.87642049077968 166.58374674177972 138.87642049077968 169.3451704907797 C 138.87642049077968 172.1065942397797 136.63784423977967 174.3451704907797 133.87642049077968 174.3451704907797 C 131.1149967417797 174.3451704907797 128.87642049077968 172.1065942397797 128.87642049077968 169.3451704907797" stroke-opacity="1" stroke-linecap="round" stroke-miterlimit="10" stroke-dasharray=""/><path fill="none" stroke="rgb(255,0,0)" paint-order="fill stroke markers" d=" M 119.14529226990803 141.02029226990805 C 119.14529226990803 138.25886852090807 121.38386852090802 136.02029226990805 124.14529226990803 136.02029226990805 C 126.90671601890803 136.02029226990805 129.14529226990803 138.25886852090807 129.14529226990803 141.02029226990805 C 129.14529226990803 143.78171601890804 126.90671601890803 146.02029226990805 124.14529226990803 146.02029226990805 C 121.38386852090802 146.02029226990805 119.14529226990803 143.78171601890804 119.14529226990803 141.02029226990805" stroke-opacity="1" stroke-linecap="round" stroke-miterlimit="10" stroke-dasharray=""/><path fill="none" stroke="rgb(255,0,0)" paint-order="fill stroke markers" d=" M 115.80661533738504 115.02536533738505 C 115.80661533738504 112.26394158838505 118.04519158838504 110.02536533738505 120.80661533738504 110.02536533738505 C 123.56803908638504 110.02536533738505 125.80661533738504 112.26394158838505 125.80661533738504 115.02536533738505 C 125.80661533738504 117.78678908638506 123.56803908638504 120.02536533738505 120.80661533738504 120.02536533738505 C 118.04519158838504 120.02536533738505 115.80661533738504 117.78678908638506 115.80661533738504 115.02536533738505" stroke-opacity="1" stroke-linecap="round" stroke-miterlimit="10" stroke-dasharray=""/><path fill="none" stroke="rgb(255,0,0)" paint-order="fill stroke markers" d=" M 118.86038969321069 91.36038969321072 C 118.86038969321069 88.59896594421072 121.09896594421069 86.36038969321072 123.86038969321069 86.36038969321072 C 126.6218134422107 86.36038969321072 128.8603896932107 88.59896594421072 128.8603896932107 91.36038969321072 C 128.8603896932107 94.12181344221072 126.6218134422107 96.36038969321072 123.86038969321069 96.36038969321072 C 121.09896594421069 96.36038969321072 118.86038969321069 94.12181344221072 118.86038969321069 91.36038969321072" stroke-opacity="1" stroke-linecap="round" stroke-miterlimit="10" stroke-dasharray=""/><path fill="none" stroke="rgb(255,0,0)" paint-order="fill stroke markers" d=" M 128.30661533738504 70.02536533738505 C 128.30661533738504 67.26394158838505 130.54519158838505 65.02536533738505 133.30661533738504 65.02536533738505 C 136.06803908638503 65.02536533738505 138.30661533738504 67.26394158838505 138.30661533738504 70.02536533738505 C 138.30661533738504 72.78678908638506 136.06803908638503 75.02536533738505 133.30661533738504 75.02536533738505 C 130.54519158838505 75.02536533738505 128.30661533738504 72.78678908638506 128.30661533738504 70.02536533738505" stroke-opacity="1" stroke-linecap="round" stroke-miterlimit="10" stroke-dasharray=""/><path fill="none" stroke="rgb(255,0,0)" paint-order="fill stroke markers" d=" M 144.145292269908 51.02029226990805 C 144.145292269908 48.258868520908045 146.383868520908 46.02029226990805 149.145292269908 46.02029226990805 C 151.90671601890799 46.02029226990805 154.145292269908 48.258868520908045 154.145292269908 51.02029226990805 C 154.145292269908 53.78171601890805 151.90671601890799 56.02029226990805 149.145292269908 56.02029226990805 C 146.383868520908 56.02029226990805 144.145292269908 53.78171601890805 144.145292269908 51.02029226990805" stroke-opacity="1" stroke-linecap="round" stroke-miterlimit="10" stroke-dasharray=""/><path fill="none" stroke="rgb(255,0,0)" paint-order="fill stroke markers" d=" M 166.37642049077965 34.345170490779694 C 166.37642049077965 31.583746741779695 168.61499674177966 29.345170490779694 171.37642049077965 29.345170490779694 C 174.13784423977964 29.345170490779694 176.37642049077965 31.583746741779695 176.37642049077965 34.345170490779694 C 176.37642049077965 37.106594239779696 174.13784423977964 39.345170490779694 171.37642049077965 39.345170490779694 C 168.61499674177966 39.345170490779694 166.37642049077965 37.106594239779696 166.37642049077965 34.345170490779694" stroke-opacity="1" stroke-linecap="round" stroke-miterlimit="10" stroke-dasharray=""/><path fill="none" stroke="rgb(255,0,0)" paint-order="fill stroke markers" d=" M 194.99999999999997 20 C 194.99999999999997 17.238576251 197.23857625099998 15 199.99999999999997 15 C 202.76142374899996 15 204.99999999999997 17.238576251 204.99999999999997 20 C 204.99999999999997 22.761423749 202.76142374899996 25 199.99999999999997 25 C 197.23857625099998 25 194.99999999999997 22.761423749 194.99999999999997 20" stroke-opacity="1" stroke-linecap="round" stroke-miterlimit="10" stroke-dasharray=""/><path fill="none" stroke="rgb(255,0,0)" paint-order="fill stroke markers" d=" M 67.72077938642141 72.72077938642146 C 67.72077938642141 69.95935563742145 69.95935563742141 67.72077938642146 72.72077938642141 67.72077938642146 C 75.48220313542141 67.72077938642146 77.72077938642141 69.95935563742145 77.72077938642141 72.72077938642146 C 77.72077938642141 75.48220313542146 75.48220313542141 77.72077938642146 72.72077938642141 77.72077938642146 C 69.95935563742141 77.72077938642146 67.72077938642141 75.48220313542146 67.72077938642141 72.72077938642146" stroke-opacity="1" stroke-linecap="round" stroke-miterlimit="10" stroke-dasharray=""/><path fill="none" stroke="rgb(255,0,0)" paint-order="fill stroke markers" d=" M 89.81786629850103 94.03661629850106 C 89.81786629850103 91.27519254950106 92.05644254950103 89.03661629850106 94.81786629850103 89.03661629850106 C 97.57929004750103 89.03661629850106 99.81786629850103 91.27519254950106 99.81786629850103 94.03661629850106 C 99.81786629850103 96.79804004750106 97.57929004750103 99.03661629850106 94.81786629850103 99.03661629850106 C 92.05644254950103 99.03661629850106 89.81786629850103 96.79804004750106 89.81786629850103 94.03661629850106" stroke-opacity="1" stroke-linecap="round" stroke-miterlimit="10" stroke-dasharray=""/><path fill="none" stroke="rgb(255,0,0)" paint-order="fill stroke markers" d=" M 110.14718625761428 112.0221862576143 C 110.14718625761428 109.26076250861429 112.38576250861428 107.0221862576143 115.14718625761428 107.0221862576143 C 117.90861000661428 107.0221862576143 120.14718625761428 109.26076250861429 120.14718625761428 112.0221862576143 C 120.14718625761428 114.7836100066143 117.90861000661428 117.0221862576143 115.14718625761428 117.0221862576143 C 112.38576250861428 117.0221862576143 110.14718625761428 114.7836100066143 110.14718625761428 112.0221862576143" stroke-opacity="1" stroke-linecap="round" stroke-miterlimit="10" stroke-dasharray=""/><path fill="none" stroke="rgb(255,0,0)" paint-order="fill stroke markers" d=" M 128.70873926376117 126.67748926376117 C 128.70873926376117 123.91606551476117 130.9473155147612 121.67748926376117 133.70873926376117 121.67748926376117 C 136.47016301276116 121.67748926376117 138.70873926376117 123.91606551476117 138.70873926376117 126.67748926376117 C 138.70873926376117 129.43891301276116 136.47016301276116 131.67748926376117 133.70873926376117 131.67748926376117 C 130.9473155147612 131.67748926376117 128.70873926376117 129.43891301276116 128.70873926376117 126.67748926376117" stroke-opacity="1" stroke-linecap="round" stroke-miterlimit="10" stroke-dasharray=""/><path fill="none" stroke="rgb(255,0,0)" paint-order="fill stroke markers" d=" M 145.50252531694167 138.00252531694167 C 145.50252531694167 135.24110156794168 147.74110156794168 133.00252531694167 150.50252531694167 133.00252531694167 C 153.26394906594166 133.00252531694167 155.50252531694167 135.24110156794168 155.50252531694167 138.00252531694167 C 155.50252531694167 140.76394906594166 153.26394906594166 143.00252531694167 150.50252531694167 143.00252531694167 C 147.74110156794168 143.00252531694167 145.50252531694167 140.76394906594166 145.50252531694167 138.00252531694167" stroke-opacity="1" stroke-linecap="round" stroke-miterlimit="10" stroke-dasharray=""/><path fill="none" stroke="rgb(255,0,0)" paint-order="fill stroke markers" d=" M 160.52854441715579 145.9972944171558 C 160.52854441715579 143.23587066815583 162.7671206681558 140.9972944171558 165.52854441715579 140.9972944171558 C 168.28996816615577 140.9972944171558 170.52854441715579 143.23587066815583 170.52854441715579 145.9972944171558 C 170.52854441715579 148.7587181661558 168.28996816615577 150.9972944171558 165.52854441715579 150.9972944171558 C 162.7671206681558 150.9972944171558 160.52854441715579 148.7587181661558 160.52854441715579 145.9972944171558" stroke-opacity="1" stroke-linecap="round" stroke-miterlimit="10" stroke-dasharray=""/><path fill="none" stroke="rgb(255,0,0)" paint-order="fill stroke markers" d=" M 173.78679656440357 150.66179656440357 C 173.78679656440357 147.90037281540359 176.02537281540359 145.66179656440357 178.78679656440357 145.66179656440357 C 181.54822031340356 145.66179656440357 183.78679656440357 147.90037281540359 183.78679656440357 150.66179656440357 C 183.78679656440357 153.42322031340356 181.54822031340356 155.66179656440357 178.78679656440357 155.66179656440357 C 176.02537281540359 155.66179656440357 173.78679656440357 153.42322031340356 173.78679656440357 150.66179656440357" stroke-opacity="1" stroke-linecap="round" stroke-miterlimit="10" stroke-dasharray=""/><path fill="none" stroke="rgb(255,0,0)" paint-order="fill stroke markers" d=" M 185.27728175868498 151.99603175868498 C 185.27728175868498 149.234608009685 187.515858009685 146.99603175868498 190.27728175868498 146.99603175868498 C 193.03870550768497 146.99603175868498 195.27728175868498 149.234608009685 195.27728175868498 151.99603175868498 C 195.27728175868498 154.75745550768497 193.03870550768497 156.99603175868498 190.27728175868498 156.99603175868498 C 187.515858009685 156.99603175868498 185.27728175868498 154.75745550768497 185.27728175868498 151.99603175868498" stroke-opacity="1" stroke-linecap="round" stroke-miterlimit="10" stroke-dasharray=""/><path fill="none" stroke="rgb(255,0,0)" paint-order="fill stroke markers" d=" M 195 150 C 195 147.238576251 197.238576251 145 200 145 C 202.761423749 145 205 147.238576251 205 150 C 205 152.761423749 202.761423749 155 200 155 C 197.238576251 155 195 152.761423749 195 150" stroke-opacity="1" stroke-linecap="round" stroke-miterlimit="10" stroke-dasharray=""/><path fill="none" stroke="rgb(255,0,0)" paint-order="fill stroke markers" d=" M 159.64466094067262 164.64466094067262 C 159.64466094067262 161.88323719167263 161.88323719167263 159.64466094067262 164.64466094067262 159.64466094067262 C 167.4060846896726 159.64466094067262 169.64466094067262 161.88323719167263 169.64466094067262 164.64466094067262 C 169.64466094067262 167.4060846896726 167.4060846896726 169.64466094067262 164.64466094067262 169.64466094067262 C 161.88323719167263 169.64466094067262 159.64466094067262 167.4060846896726 159.64466094067262 164.64466094067262" stroke-opacity="1" stroke-linecap="round" stroke-miterlimit="10" stroke-dasharray=""/><path fill="none" stroke="rgb(255,0,0)" paint-order="fill stroke markers" d=" M 169.91980635478964 131.56733071061532 C 169.91980635478964 128.80590696161534 172.15838260578965 126.56733071061532 174.91980635478964 126.56733071061532 C 177.68123010378963 126.56733071061532 179.91980635478964 128.80590696161534 179.91980635478964 131.56733071061532 C 179.91980635478964 134.3287544596153 177.68123010378963 136.56733071061532 174.91980635478964 136.56733071061532 C 172.15838260578965 136.56733071061532 169.91980635478964 134.3287544596153 169.91980635478964 131.56733071061532" stroke-opacity="1" stroke-linecap="round" stroke-miterlimit="10" stroke-dasharray=""/><path fill="none" stroke="rgb(255,0,0)" paint-order="fill stroke markers" d=" M 183.067573067477 104.65767049077968 C 183.067573067477 101.89624674177968 185.30614931847703 99.65767049077968 188.067573067477 99.65767049077968 C 190.828996816477 99.65767049077968 193.067573067477 101.89624674177968 193.067573067477 104.65767049077968 C 193.067573067477 107.41909423977968 190.828996816477 109.65767049077968 188.067573067477 109.65767049077968 C 185.30614931847703 109.65767049077968 183.067573067477 107.41909423977968 183.067573067477 104.65767049077968" stroke-opacity="1" stroke-linecap="round" stroke-miterlimit="10" stroke-dasharray=""/><path fill="none" stroke="rgb(255,0,0)" paint-order="fill stroke markers" d=" M 199.08796107873474 83.91568028116575 C 199.08796107873474 81.15425653216575 201.32653732973475 78.91568028116575 204.08796107873474 78.91568028116575 C 206.84938482773472 78.91568028116575 209.08796107873474 81.15425653216575 209.08796107873474 83.91568028116575 C 209.08796107873474 86.67710403016575 206.84938482773472 88.91568028116575 204.08796107873474 88.91568028116575 C 201.32653732973475 88.91568028116575 199.08796107873474 86.67710403016575 199.08796107873474 83.91568028116575" stroke-opacity="1" stroke-linecap="round" stroke-miterlimit="10" stroke-dasharray=""/><path fill="none" stroke="rgb(255,0,0)" paint-order="fill stroke markers" d=" M 217.98097038856275 69.3413600817735 C 217.98097038856275 66.5799363327735 220.21954663956276 64.3413600817735 222.98097038856275 64.3413600817735 C 225.74239413756274 64.3413600817735 227.98097038856275 66.5799363327735 227.98097038856275 69.3413600817735 C 227.98097038856275 72.1027838307735 225.74239413756274 74.3413600817735 222.98097038856275 74.3413600817735 C 220.21954663956276 74.3413600817735 217.98097038856275 72.1027838307735 217.98097038856275 69.3413600817735" stroke-opacity="1" stroke-linecap="round" stroke-miterlimit="10" stroke-dasharray=""/><path fill="none" stroke="rgb(255,0,0)" paint-order="fill stroke markers" d=" M 239.74660099696118 60.93470989260295 C 239.74660099696118 58.17328614360295 241.9851772479612 55.93470989260295 244.74660099696118 55.93470989260295 C 247.50802474596117 55.93470989260295 249.74660099696118 58.17328614360295 249.74660099696118 60.93470989260295 C 249.74660099696118 63.696133641602955 247.50802474596117 65.93470989260295 244.74660099696118 65.93470989260295 C 241.9851772479612 65.93470989260295 239.74660099696118 63.696133641602955 239.74660099696118 60.93470989260295" stroke-opacity="1" stroke-linecap="round" stroke-miterlimit="10" stroke-dasharray=""/><path fill="none" stroke="rgb(255,0,0)" paint-order="fill stroke markers" d=" M 264.3848529039299 58.69572971365409 C 264.3848529039299 55.93430596465409 266.6234291549299 53.69572971365409 269.3848529039299 53.69572971365409 C 272.14627665292994 53.69572971365409 274.3848529039299 55.93430596465409 274.3848529039299 58.69572971365409 C 274.3848529039299 61.45715346265409 272.14627665292994 63.69572971365409 269.3848529039299 63.69572971365409 C 266.6234291549299 63.69572971365409 264.3848529039299 61.45715346265409 264.3848529039299 58.69572971365409" stroke-opacity="1" stroke-linecap="round" stroke-miterlimit="10" stroke-dasharray=""/><path fill="none" stroke="rgb(255,0,0)" paint-order="fill stroke markers" d=" M 291.895726109469 62.6244195449269 C 291.895726109469 59.8629957959269 294.134302360469 57.6244195449269 296.895726109469 57.6244195449269 C 299.65714985846904 57.6244195449269 301.895726109469 59.8629957959269 301.895726109469 62.6244195449269 C 301.895726109469 65.3858432939269 299.65714985846904 67.6244195449269 296.895726109469 67.6244195449269 C 294.134302360469 67.6244195449269 291.895726109469 65.3858432939269 291.895726109469 62.6244195449269" stroke-opacity="1" stroke-linecap="round" stroke-miterlimit="10" stroke-dasharray=""/><path fill="none" stroke="rgb(255,0,0)" paint-order="fill stroke markers" d=" M 322.2792206135785 72.72077938642141 C 322.2792206135785 69.95935563742141 324.5177968645785 67.72077938642141 327.2792206135785 67.72077938642141 C 330.0406443625785 67.72077938642141 332.2792206135785 69.95935563742141 332.2792206135785 72.72077938642141 C 332.2792206135785 75.48220313542141 330.0406443625785 77.72077938642141 327.2792206135785 77.72077938642141 C 324.5177968645785 77.72077938642141 322.2792206135785 75.48220313542141 322.2792206135785 72.72077938642141" stroke-opacity="1" stroke-linecap="round" stroke-miterlimit="10" stroke-dasharray=""/><path fill="none" stroke="rgb(255,0,0)" paint-order="fill stroke markers" d=" M 194.99999999999997 20 C 194.99999999999997 17.238576251 197.23857625099998 15 199.99999999999997 15 C 202.76142374899996 15 204.99999999999997 17.238576251 204.99999999999997 20 C 204.99999999999997 22.761423749 202.76142374899996 25 199.99999999999997 25 C 197.23857625099998 25 194.99999999999997 22.761423749 194.99999999999997 20" stroke-opacity="1" stroke-linecap="round" stroke-miterlimit="10" stroke-dasharray=""/><path fill="none" stroke="rgb(255,0,0)" paint-order="fill stroke markers" d=" M 195.55242717280197 50.69757282719801 C 195.55242717280197 47.93614907819801 197.79100342380198 45.69757282719801 200.55242717280197 45.69757282719801 C 203.31385092180196 45.69757282719801 205.55242717280197 47.93614907819801 205.55242717280197 50.69757282719801 C 205.55242717280197 53.45899657619801 203.31385092180196 55.69757282719801 200.55242717280197 55.69757282719801 C 197.79100342380198 55.69757282719801 195.55242717280197 53.45899657619801 195.55242717280197 50.69757282719801" stroke-opacity="1" stroke-linecap="round" stroke-miterlimit="10" stroke-dasharray=""/><path fill="none" stroke="rgb(255,0,0)" paint-order="fill stroke markers" d=" M 197.20970869120796 77.79029130879204 C 197.20970869120796 75.02886755979203 199.44828494220798 72.79029130879204 202.20970869120796 72.79029130879204 C 204.97113244020795 72.79029130879204 207.20970869120796 75.02886755979203 207.20970869120796 77.79029130879204 C 207.20970869120796 80.55171505779204 204.97113244020795 82.79029130879204 202.20970869120796 82.79029130879204 C 199.44828494220798 82.79029130879204 197.20970869120796 80.55171505779204 197.20970869120796 77.79029130879204" stroke-opacity="1" stroke-linecap="round" stroke-miterlimit="10" stroke-dasharray=""/><path fill="none" stroke="rgb(255,0,0)" paint-order="fill stroke markers" d=" M 199.9718445552179 101.27815544478209 C 199.9718445552179 98.51673169578208 202.2104208062179 96.27815544478209 204.9718445552179 96.27815544478209 C 207.7332683042179 96.27815544478209 209.9718445552179 98.51673169578208 209.9718445552179 101.27815544478209 C 209.9718445552179 104.03957919378209 207.7332683042179 106.27815544478209 204.9718445552179 106.27815544478209 C 202.2104208062179 106.27815544478209 199.9718445552179 104.03957919378209 199.9718445552179 101.27815544478209" stroke-opacity="1" stroke-linecap="round" stroke-miterlimit="10" stroke-dasharray=""/><path fill="none" stroke="rgb(255,0,0)" paint-order="fill stroke markers" d=" M 203.83883476483186 121.16116523516816 C 203.83883476483186 118.39974148616815 206.07741101583187 116.16116523516816 208.83883476483186 116.16116523516816 C 211.60025851383185 116.16116523516816 213.83883476483186 118.39974148616815 213.83883476483186 121.16116523516816 C 213.83883476483186 123.92258898416816 211.60025851383185 126.16116523516816 208.83883476483186 126.16116523516816 C 206.07741101583187 126.16116523516816 203.83883476483186 123.92258898416816 203.83883476483186 121.16116523516816" stroke-opacity="1" stroke-linecap="round" stroke-miterlimit="10" stroke-dasharray=""/><path fill="none" stroke="rgb(255,0,0)" paint-order="fill stroke markers" d=" M 208.81067932004976 137.43932067995024 C 208.81067932004976 134.67789693095025 211.04925557104977 132.43932067995024 213.81067932004976 132.43932067995024 C 216.57210306904975 132.43932067995024 218.81067932004976 134.67789693095025 218.81067932004976 137.43932067995024 C 218.81067932004976 140.20074442895023 216.57210306904975 142.43932067995024 213.81067932004976 142.43932067995024 C 211.04925557104977 142.43932067995024 208.81067932004976 140.20074442895023 208.81067932004976 137.43932067995024" stroke-opacity="1" stroke-linecap="round" stroke-miterlimit="10" stroke-dasharray=""/><path fill="none" stroke="rgb(255,0,0)" paint-order="fill stroke markers" d=" M 214.88737822087165 150.11262177912835 C 214.88737822087165 147.35119803012836 217.12595447187167 145.11262177912835 219.88737822087165 145.11262177912835 C 222.64880196987164 145.11262177912835 224.88737822087165 147.35119803012836 224.88737822087165 150.11262177912835 C 224.88737822087165 152.87404552812833 222.64880196987164 155.11262177912835 219.88737822087165 155.11262177912835 C 217.12595447187167 155.11262177912835 214.88737822087165 152.87404552812833 214.88737822087165 150.11262177912835" stroke-opacity="1" stroke-linecap="round" stroke-miterlimit="10" stroke-dasharray=""/><path fill="none" stroke="rgb(255,0,0)" paint-order="fill stroke markers" d=" M 222.06893146729752 159.18106853270248 C 222.06893146729752 156.4196447837025 224.30750771829753 154.18106853270248 227.06893146729752 154.18106853270248 C 229.8303552162975 154.18106853270248 232.06893146729752 156.4196447837025 232.06893146729752 159.18106853270248 C 232.06893146729752 161.94249228170247 229.8303552162975 164.18106853270248 227.06893146729752 164.18106853270248 C 224.30750771829753 164.18106853270248 222.06893146729752 161.94249228170247 222.06893146729752 159.18106853270248" stroke-opacity="1" stroke-linecap="round" stroke-miterlimit="10" stroke-dasharray=""/><path fill="none" stroke="rgb(255,0,0)" paint-order="fill stroke markers" d=" M 230.35533905932738 164.64466094067262 C 230.35533905932738 161.88323719167263 232.5939153103274 159.64466094067262 235.35533905932738 159.64466094067262 C 238.11676280832737 159.64466094067262 240.35533905932738 161.88323719167263 240.35533905932738 164.64466094067262 C 240.35533905932738 167.4060846896726 238.11676280832737 169.64466094067262 235.35533905932738 169.64466094067262 C 232.5939153103274 169.64466094067262 230.35533905932738 167.4060846896726 230.35533905932738 164.64466094067262" stroke-opacity="1" stroke-linecap="round" stroke-miterlimit="10" stroke-dasharray=""/><path fill="none" stroke="rgb(255,0,0)" paint-order="fill stroke markers" d=" M 195 150 C 195 147.238576251 197.238576251 145 200 145 C 202.761423749 145 205 147.238576251 205 150 C 205 152.761423749 202.761423749 155 200 155 C 197.238576251 155 195 152.761423749 195 150" stroke-opacity="1" stroke-linecap="round" stroke-miterlimit="10" stroke-dasharray=""/><path fill="none" stroke="rgb(255,0,0)" paint-order="fill stroke markers" d=" M 225.6548295092203 133.87642049077968 C 225.6548295092203 131.1149967417797 227.8934057602203 128.87642049077968 230.6548295092203 128.87642049077968 C 233.41625325822028 128.87642049077968 235.6548295092203 131.1149967417797 235.6548295092203 133.87642049077968 C 235.6548295092203 136.63784423977967 233.41625325822028 138.87642049077968 230.6548295092203 138.87642049077968 C 227.8934057602203 138.87642049077968 225.6548295092203 136.63784423977967 225.6548295092203 133.87642049077968" stroke-opacity="1" stroke-linecap="round" stroke-miterlimit="10" stroke-dasharray=""/><path fill="none" stroke="rgb(255,0,0)" paint-order="fill stroke markers" d=" M 253.97970773009195 124.14529226990803 C 253.97970773009195 121.38386852090802 256.21828398109193 119.14529226990803 258.97970773009195 119.14529226990803 C 261.74113147909196 119.14529226990803 263.97970773009195 121.38386852090802 263.97970773009195 124.14529226990803 C 263.97970773009195 126.90671601890803 261.74113147909196 129.14529226990803 258.97970773009195 129.14529226990803 C 256.21828398109193 129.14529226990803 253.97970773009195 126.90671601890803 253.97970773009195 124.14529226990803" stroke-opacity="1" stroke-linecap="round" stroke-miterlimit="10" stroke-dasharray=""/><path fill="none" stroke="rgb(255,0,0)" paint-order="fill stroke markers" d=" M 279.9746346626149 120.80661533738504 C 279.9746346626149 118.04519158838504 282.2132109136149 115.80661533738504 284.9746346626149 115.80661533738504 C 287.7360584116149 115.80661533738504 289.9746346626149 118.04519158838504 289.9746346626149 120.80661533738504 C 289.9746346626149 123.56803908638504 287.7360584116149 125.80661533738504 284.9746346626149 125.80661533738504 C 282.2132109136149 125.80661533738504 279.9746346626149 123.56803908638504 279.9746346626149 120.80661533738504" stroke-opacity="1" stroke-linecap="round" stroke-miterlimit="10" stroke-dasharray=""/><path fill="none" stroke="rgb(255,0,0)" paint-order="fill stroke markers" d=" M 303.6396103067892 123.86038969321069 C 303.6396103067892 121.09896594421069 305.8781865577892 118.86038969321069 308.6396103067892 118.86038969321069 C 311.40103405578924 118.86038969321069 313.6396103067892 121.09896594421069 313.6396103067892 123.86038969321069 C 313.6396103067892 126.6218134422107 311.40103405578924 128.8603896932107 308.6396103067892 128.8603896932107 C 305.8781865577892 128.8603896932107 303.6396103067892 126.6218134422107 303.6396103067892 123.86038969321069" stroke-opacity="1" stroke-linecap="round" stroke-miterlimit="10" stroke-dasharray=""/><path fill="none" stroke="rgb(255,0,0)" paint-order="fill stroke markers" d=" M 324.9746346626149 133.306615337385 C 324.9746346626149 130.54519158838502 327.2132109136149 128.306615337385 329.9746346626149 128.306615337385 C 332.7360584116149 128.306615337385 334.9746346626149 130.54519158838502 334.9746346626149 133.306615337385 C 334.9746346626149 136.068039086385 332.7360584116149 138.306615337385 329.9746346626149 138.306615337385 C 327.2132109136149 138.306615337385 324.9746346626149 136.068039086385 324.9746346626149 133.306615337385" stroke-opacity="1" stroke-linecap="round" stroke-miterlimit="10" stroke-dasharray=""/><path fill="none" stroke="rgb(255,0,0)" paint-order="fill stroke markers" d=" M 343.97970773009195 149.145292269908 C 343.97970773009195 146.383868520908 346.21828398109193 144.145292269908 348.97970773009195 144.145292269908 C 351.74113147909196 144.145292269908 353.97970773009195 146.383868520908 353.97970773009195 149.145292269908 C 353.97970773009195 151.90671601890799 351.74113147909196 154.145292269908 348.97970773009195 154.145292269908 C 346.21828398109193 154.145292269908 343.97970773009195 151.90671601890799 343.97970773009195 149.145292269908" stroke-opacity="1" stroke-linecap="round" stroke-miterlimit="10" stroke-dasharray=""/><path fill="none" stroke="rgb(255,0,0)" paint-order="fill stroke markers" d=" M 360.6548295092203 171.37642049077962 C 360.6548295092203 168.61499674177963 362.8934057602203 166.37642049077962 365.6548295092203 166.37642049077962 C 368.4162532582203 166.37642049077962 370.6548295092203 168.61499674177963 370.6548295092203 171.37642049077962 C 370.6548295092203 174.1378442397796 368.4162532582203 176.37642049077962 365.6548295092203 176.37642049077962 C 362.8934057602203 176.37642049077962 360.6548295092203 174.1378442397796 360.6548295092203 171.37642049077962" stroke-opacity="1" stroke-linecap="round" stroke-miterlimit="10" stroke-dasharray=""/><path fill="none" stroke="rgb(255,0,0)" paint-order="fill stroke markers" d=" M 375 199.99999999999994 C 375 197.23857625099996 377.238576251 194.99999999999994 380 194.99999999999994 C 382.761423749 194.99999999999994 385 197.23857625099996 385 199.99999999999994 C 385 202.76142374899993 382.761423749 204.99999999999994 380 204.99999999999994 C 377.238576251 204.99999999999994 375 202.76142374899993 375 199.99999999999994" stroke-opacity="1" stroke-linecap="round" stroke-miterlimit="10" stroke-dasharray=""/><path fill="none" stroke="rgb(255,0,0)" paint-order="fill stroke markers" d=" M NaN NaN C NaN NaN NaN NaN NaN NaN C NaN NaN NaN NaN NaN NaN C NaN NaN NaN NaN NaN NaN C NaN NaN NaN NaN NaN NaN" stroke-opacity="1" stroke-linecap="round" stroke-miterlimit="10" stroke-dasharray=""/><path fill="none" stroke="rgb(255,0,0)" paint-order="fill stroke markers" d=" M NaN NaN C NaN NaN NaN NaN NaN NaN C NaN NaN NaN NaN NaN NaN C NaN NaN NaN NaN NaN NaN C NaN NaN NaN NaN NaN NaN" stroke-opacity="1" stroke-linecap="round" stroke-miterlimit="10" stroke-dasharray=""/><path fill="none" stroke="rgb(255,0,0)" paint-order="fill stroke markers" d=" M NaN NaN C NaN NaN NaN NaN NaN NaN C NaN NaN NaN NaN NaN NaN C NaN NaN NaN NaN NaN NaN C NaN NaN NaN NaN NaN NaN" stroke-opacity="1" stroke-linecap="round" stroke-miterlimit="10" stroke-dasharray=""/><path fill="none" stroke="rgb(255,0,0)" paint-order="fill stroke markers" d=" M NaN NaN C NaN NaN NaN NaN NaN NaN C NaN NaN NaN NaN NaN NaN C NaN NaN NaN NaN NaN NaN C NaN NaN NaN NaN NaN NaN" stroke-opacity="1" stroke-linecap="round" stroke-miterlimit="10" stroke-dasharray=""/><path fill="none" stroke="rgb(255,0,0)" paint-order="fill stroke markers" d=" M NaN NaN C NaN NaN NaN NaN NaN NaN C NaN NaN NaN NaN NaN NaN C NaN NaN NaN NaN NaN NaN C NaN NaN NaN NaN NaN NaN" stroke-opacity="1" stroke-linecap="round" stroke-miterlimit="10" stroke-dasharray=""/><path fill="none" stroke="rgb(255,0,0)" paint-order="fill stroke markers" d=" M NaN NaN C NaN NaN NaN NaN NaN NaN C NaN NaN NaN NaN NaN NaN C NaN NaN NaN NaN NaN NaN C NaN NaN NaN NaN NaN NaN" stroke-opacity="1" stroke-linecap="round" stroke-miterlimit="10" stroke-dasharray=""/><path fill="none" stroke="rgb(255,0,0)" paint-order="fill stroke markers" d=" M NaN NaN C NaN NaN NaN NaN NaN NaN C NaN NaN NaN NaN NaN NaN C NaN NaN NaN NaN NaN NaN C NaN NaN NaN NaN NaN NaN" stroke-opacity="1" stroke-linecap="round" stroke-miterlimit="10" stroke-dasharray=""/><path fill="none" stroke="rgb(255,0,0)" paint-order="fill stroke markers" d=" M NaN NaN C NaN NaN NaN NaN NaN NaN C NaN NaN NaN NaN NaN NaN C NaN NaN NaN NaN NaN NaN C NaN NaN NaN NaN NaN NaN" stroke-opacity="1" stroke-linecap="round" stroke-miterlimit="10" stroke-dasharray=""/><path fill="none" stroke="rgb(255,0,0)" paint-order="fill stroke markers" d=" M NaN NaN C NaN NaN NaN NaN NaN NaN C NaN NaN NaN NaN NaN NaN C NaN NaN NaN NaN NaN NaN C NaN NaN NaN NaN NaN NaN" stroke-opacity="1" stroke-linecap="round" stroke-miterlimit="10" stroke-dasharray=""/><path fill="none" stroke="rgb(255,0,0)" paint-order="fill stroke markers" d=" M NaN NaN C NaN NaN NaN NaN NaN NaN C NaN NaN NaN NaN NaN NaN C NaN NaN NaN NaN NaN NaN C NaN NaN NaN NaN NaN NaN" stroke-opacity="1" stroke-linecap="round" stroke-miterlimit="10" stroke-dasharray=""/><path fill="none" stroke="rgb(255,0,0)" paint-order="fill stroke markers" d=" M NaN NaN C NaN NaN NaN NaN NaN NaN C NaN NaN NaN NaN NaN NaN C NaN NaN NaN NaN NaN NaN C NaN NaN NaN NaN NaN NaN" stroke-opacity="1" stroke-linecap="round" stroke-miterlimit="10" stroke-dasharray=""/><path fill="none" stroke="rgb(255,0,0)" paint-order="fill stroke markers" d=" M NaN NaN C NaN NaN NaN NaN NaN NaN C NaN NaN NaN NaN NaN NaN C NaN NaN NaN NaN NaN NaN C NaN NaN NaN NaN NaN NaN" stroke-opacity="1" stroke-linecap="round" stroke-miterlimit="10" stroke-dasharray=""/><path fill="none" stroke="rgb(255,0,0)" paint-order="fill stroke markers" d=" M NaN NaN C NaN NaN NaN NaN NaN NaN C NaN NaN NaN NaN NaN NaN C NaN NaN NaN NaN NaN NaN C NaN NaN NaN NaN NaN NaN" stroke-opacity="1" stroke-linecap="round" stroke-miterlimit="10" stroke-dasharray=""/><path fill="none" stroke="rgb(255,0,0)" paint-order="fill stroke markers" d=" M NaN NaN C NaN NaN NaN NaN NaN NaN C NaN NaN NaN NaN NaN NaN C NaN NaN NaN NaN NaN NaN C NaN NaN NaN NaN NaN NaN" stroke-opacity="1" stroke-linecap="round" stroke-miterlimit="10" stroke-dasharray=""/><path fill="none" stroke="rgb(255,0,0)" paint-order="fill stroke markers" d=" M NaN NaN C NaN NaN NaN NaN NaN NaN C NaN NaN NaN NaN NaN NaN C NaN NaN NaN NaN NaN NaN C NaN NaN NaN NaN NaN NaN" stroke-opacity="1" stroke-linecap="round" stroke-miterlimit="10" stroke-dasharray=""/><path fill="none" stroke="rgb(255,0,0)" paint-order="fill stroke markers" d=" M NaN NaN C NaN NaN NaN NaN NaN NaN C NaN NaN NaN NaN NaN NaN C NaN NaN NaN NaN NaN NaN C NaN NaN NaN NaN NaN NaN" stroke-opacity="1" stroke-linecap="round" stroke-miterlimit="10" stroke-dasharray=""/><path fill="none" stroke="rgb(255,0,0)" paint-order="fill stroke markers" d=" M NaN NaN C NaN NaN NaN NaN NaN NaN C NaN NaN NaN NaN NaN NaN C NaN NaN NaN NaN NaN NaN C NaN NaN NaN NaN NaN NaN" stroke-opacity="1" stroke-linecap="round" stroke-miterlimit="10" stroke-dasharray=""/><path fill="none" stroke="rgb(255,0,0)" paint-order="fill stroke markers" d=" M NaN NaN C NaN NaN NaN NaN NaN NaN C NaN NaN NaN NaN NaN NaN C NaN NaN NaN NaN NaN NaN C NaN NaN NaN NaN NaN NaN" stroke-opacity="1" stroke-linecap="round" stroke-miterlimit="10" stroke-dasharray=""/><path fill="none" stroke="rgb(255,0,0)" paint-order="fill stroke markers" d=" M NaN NaN C NaN NaN NaN NaN NaN NaN C NaN NaN NaN NaN NaN NaN C NaN NaN NaN NaN NaN NaN C NaN NaN NaN NaN NaN NaN" stroke-opacity="1" stroke-linecap="round" stroke-miterlimit="10" stroke-dasharray=""/><path fill="none" stroke="rgb(255,0,0)" paint-order="fill stroke markers" d=" M NaN NaN C NaN NaN NaN NaN NaN NaN C NaN NaN NaN NaN NaN NaN C NaN NaN NaN NaN NaN NaN C NaN NaN NaN NaN NaN NaN" stroke-opacity="1" stroke-linecap="round" stroke-miterlimit="10" stroke-dasharray=""/><path fill="none" stroke="rgb(255,0,0)" paint-order="fill stroke markers" d=" M NaN NaN C NaN NaN NaN NaN NaN NaN C NaN NaN NaN NaN NaN NaN C NaN NaN NaN NaN NaN NaN C NaN NaN NaN NaN NaN NaN" stroke-opacity="1" stroke-linecap="round" stroke-miterlimit="10" stroke-dasharray=""/><path fill="none" stroke="rgb(255,0,0)" paint-order="fill stroke markers" d=" M NaN NaN C NaN NaN NaN NaN NaN NaN C NaN NaN NaN NaN NaN NaN C NaN NaN NaN NaN NaN NaN C NaN NaN NaN NaN NaN NaN" stroke-opacity="1" stroke-linecap="round" stroke-miterlimit="10" stroke-dasharray=""/><path fill="none" stroke="rgb(255,0,0)" paint-order="fill stroke markers" d=" M NaN NaN C NaN NaN NaN NaN NaN NaN C NaN NaN NaN NaN NaN NaN C NaN NaN NaN NaN NaN NaN C NaN NaN NaN NaN NaN NaN" stroke-opacity="1" stroke-linecap="round" stroke-miterlimit="10" stroke-dasharray=""/><path fill="none" stroke="rgb(255,0,0)" paint-order="fill stroke markers" d=" M NaN NaN C NaN NaN NaN NaN NaN NaN C NaN NaN NaN NaN NaN NaN C NaN NaN NaN NaN NaN NaN C NaN NaN NaN NaN NaN NaN" stroke-opacity="1" stroke-linecap="round" stroke-miterlimit="10" stroke-dasharray=""/><path fill="none" stroke="rgb(255,0,0)" paint-order="fill stroke markers" d=" M NaN NaN C NaN NaN NaN NaN NaN NaN C NaN NaN NaN NaN NaN NaN C NaN NaN NaN NaN NaN NaN C NaN NaN NaN NaN NaN NaN" stroke-opacity="1" stroke-linecap="round" stroke-miterlimit="10" stroke-dasharray=""/><path fill="none" stroke="rgb(255,0,0)" paint-order="fill stroke markers" d=" M NaN NaN C NaN NaN NaN NaN NaN NaN C NaN NaN NaN NaN NaN NaN C NaN NaN NaN NaN NaN NaN C NaN NaN NaN NaN NaN NaN" stroke-opacity="1" stroke-linecap="round" stroke-miterlimit="10" stroke-dasharray=""/><path fill="none" stroke="rgb(255,0,0)" paint-order="fill stroke markers" d=" M NaN NaN C NaN NaN NaN NaN NaN NaN C NaN NaN NaN NaN NaN NaN C NaN NaN NaN NaN NaN NaN C NaN NaN NaN NaN NaN NaN" stroke-opacity="1" stroke-linecap="round" stroke-miterlimit="10" stroke-dasharray=""/></g></svg>